<svg width="212px" height="104px" viewBox="0 0 212 104" version="1.1" xmlns="http://www.w3.org/2000/svg" xmlns:xlink="http://www.w3.org/1999/xlink">
    <path d="M212,72 L212,104 L180,104 L180,72 L212,72 Z M200.54,83.2 L193.827,83.2 C193.714222,83.2 193.643574,83.2453704 193.615056,83.3361111 L193.603,83.396 L193.463,84.383 C193.451333,84.5074444 193.494759,84.580037 193.593278,84.6007778 L193.659,84.607 L196.221,84.607 L195.073,92.776 C195.061333,92.9004444 195.104759,92.973037 195.203278,92.9937778 L195.269,93 L196.417,93 C196.529778,93 196.600426,92.9546296 196.628944,92.8638889 L196.641,92.804 L197.789,84.607 L200.372,84.607 C200.484778,84.607 200.555426,84.5616296 200.583944,84.4708889 L200.596,84.411 L200.736,83.424 C200.751556,83.2995556 200.708778,83.226963 200.607667,83.2062222 L200.54,83.2 Z" id="Combined-Shape" fill="#000000" fill-rule="nonzero"></path>
    <path d="M176,72 L176,104 L144,104 L144,72 L176,72 Z M161.432,83.2 L158.135,83.2 C158.030467,83.2 157.961773,83.2418133 157.92892,83.32544 L157.911,83.396 L156.595,92.776 C156.585667,92.8506667 156.597333,92.9066667 156.63,92.944 C156.651778,92.9688889 156.681852,92.9854815 156.720222,92.9937778 L156.784,93 L157.932,93 C158.036533,93 158.105227,92.9581867 158.13808,92.87456 L158.156,92.804 L158.618,89.479 L160.62,89.479 C161.483333,89.479 162.1845,89.3343333 162.7235,89.045 C163.2625,88.7556667 163.659167,88.3193333 163.9135,87.736 C164.167833,87.1526667 164.295,86.4106667 164.295,85.51 C164.295,84.992 164.202833,84.5638333 164.0185,84.2255 C163.834167,83.8871667 163.532,83.6316667 163.112,83.459 C162.7445,83.3079167 162.269812,83.2229323 161.687937,83.2040469 L161.432,83.2 Z M161.306,84.607 C161.684,84.607 161.9745,84.6303333 162.1775,84.677 C162.3805,84.7236667 162.533333,84.8193333 162.636,84.964 C162.738667,85.1086667 162.79,85.328 162.79,85.622 C162.79,86.1866667 162.729333,86.6463333 162.608,87.001 C162.486667,87.3556667 162.276667,87.6228333 161.978,87.8025 C161.679333,87.9821667 161.271,88.072 160.753,88.072 L158.821,88.072 L159.304,84.607 L161.306,84.607 Z" id="Combined-Shape" fill="#000000" fill-rule="nonzero"></path>
    <path d="M140,72 L140,104 L108,104 L108,72 L140,72 Z M128.323,83.2 L122.037,83.2 C121.924222,83.2 121.853574,83.2453704 121.825056,83.3361111 L121.813,83.396 L121.673,84.383 C121.661333,84.5074444 121.704759,84.580037 121.803278,84.6007778 L121.869,84.607 L124.221,84.607 L123.241,91.593 L120.861,91.593 C120.748222,91.593 120.677574,91.6383704 120.649056,91.7291111 L120.637,91.789 L120.497,92.776 C120.485333,92.9004444 120.528759,92.973037 120.627278,92.9937778 L120.693,93 L126.979,93 C127.091778,93 127.162426,92.9546296 127.190944,92.8638889 L127.203,92.804 L127.343,91.817 C127.357,91.7423333 127.3465,91.6863333 127.3115,91.649 C127.288167,91.6241111 127.256019,91.6075185 127.215056,91.5992222 L127.147,91.593 L124.809,91.593 L125.789,84.607 L128.155,84.607 C128.267778,84.607 128.338426,84.5616296 128.366944,84.4708889 L128.379,84.411 L128.519,83.424 C128.533,83.3493333 128.5225,83.2933333 128.4875,83.256 C128.464167,83.2311111 128.432019,83.2145185 128.391056,83.2062222 L128.323,83.2 Z" id="Combined-Shape" fill="#000000" fill-rule="nonzero"></path>
    <path d="M104,72 L104,104 L72,104 L72,72 L104,72 Z M89.432,83.2 L86.135,83.2 C86.0304667,83.2 85.9617733,83.2418133 85.92892,83.32544 L85.911,83.396 L84.595,92.776 C84.5856667,92.8506667 84.5973333,92.9066667 84.63,92.944 C84.6517778,92.9688889 84.6818519,92.9854815 84.7202222,92.9937778 L84.784,93 L85.932,93 C86.0365333,93 86.1052267,92.9581867 86.13808,92.87456 L86.156,92.804 L86.618,89.479 L88.48,89.479 L90.006,92.86 C90.0396,92.9346667 90.10008,92.9794667 90.18744,92.9944 L90.258,93 L91.378,93 C91.4946667,93 91.553,92.958 91.553,92.874 C91.553,92.8553333 91.5478148,92.8304444 91.5374444,92.7993333 L91.518,92.748 L89.95,89.332 C90.7573333,89.1313333 91.35,88.7171667 91.728,88.0895 C92.106,87.4618333 92.295,86.602 92.295,85.51 C92.295,84.992 92.2028333,84.5638333 92.0185,84.2255 C91.8341667,83.8871667 91.532,83.6316667 91.112,83.459 C90.7445,83.3079167 90.2698125,83.2229323 89.6879375,83.2040469 L89.432,83.2 Z M89.306,84.607 C89.684,84.607 89.9745,84.6303333 90.1775,84.677 C90.3805,84.7236667 90.5333333,84.8193333 90.636,84.964 C90.7386667,85.1086667 90.79,85.328 90.79,85.622 C90.79,86.1866667 90.7293333,86.6463333 90.608,87.001 C90.4866667,87.3556667 90.2766667,87.6228333 89.978,87.8025 C89.6793333,87.9821667 89.271,88.072 88.753,88.072 L86.821,88.072 L87.304,84.607 L89.306,84.607 Z" id="Combined-Shape" fill="#000000" fill-rule="nonzero"></path>
    <path d="M68,72 L68,104 L36,104 L36,72 L68,72 Z M53.208,83.06 C52.3633333,83.06 51.6738333,83.1965 51.1395,83.4695 C50.6051667,83.7425 50.1746667,84.2115 49.848,84.8765 C49.554,85.475 49.32426,86.289905 49.15878,87.321215 L49.106,87.673 L48.987,88.513 C48.8983333,89.129 48.854,89.6866667 48.854,90.186 C48.854,90.9373333 48.9636667,91.5335 49.183,91.9745 C49.4023333,92.4155 49.7348333,92.7316667 50.1805,92.923 C50.6261667,93.1143333 51.206,93.21 51.92,93.21 C52.6433333,93.21 53.2511667,93.1225 53.7435,92.9475 C54.2358333,92.7725 54.6406667,92.4843333 54.958,92.083 C55.2753333,91.6816667 55.5156667,91.1356667 55.679,90.445 C55.6836667,90.4263333 55.686,90.4006667 55.686,90.368 C55.686,90.3026667 55.6708333,90.2513333 55.6405,90.214 C55.6202778,90.1891111 55.5933148,90.1725185 55.5596111,90.1642222 L55.504,90.158 L54.426,90.158 C54.2906667,90.158 54.2066667,90.2233333 54.174,90.354 C54.0713333,90.7133333 53.9325,90.9898333 53.7575,91.1835 C53.5825,91.3771667 53.3585,91.5125 53.0855,91.5895 C52.8125,91.6665 52.4613333,91.705 52.032,91.705 C51.6493333,91.705 51.3425,91.6606667 51.1115,91.572 C50.8805,91.4833333 50.702,91.3118333 50.576,91.0575 C50.45,90.8031667 50.387,90.4333333 50.387,89.948 C50.387,89.6418667 50.4108933,89.2909333 50.45868,88.8952 L50.499,88.59 L50.618,87.764 C50.744,86.882 50.9178333,86.21 51.1395,85.748 C51.3611667,85.286 51.6318333,84.9745 51.9515,84.8135 C52.2711667,84.6525 52.6806667,84.572 53.18,84.572 C53.5813333,84.572 53.8951667,84.6035 54.1215,84.6665 C54.3478333,84.7295 54.5205,84.8485 54.6395,85.0235 C54.7585,85.1985 54.825,85.4586667 54.839,85.804 C54.8436667,85.8926667 54.8646667,85.9626667 54.902,86.014 C54.9268889,86.0482222 54.959037,86.071037 54.9984444,86.0824444 L55.063,86.091 L56.085,86.091 C56.2016667,86.091 56.2697222,86.0456296 56.2891667,85.9548889 L56.295,85.895 L56.302,85.657 C56.302,85.0316667 56.1911667,84.5288333 55.9695,84.1485 C55.7478333,83.7681667 55.4106667,83.4916667 54.958,83.319 C54.5053333,83.1463333 53.922,83.06 53.208,83.06 Z" id="Combined-Shape" fill="#000000" fill-rule="nonzero"></path>
    <path d="M32,72 L32,104 L0,104 L0,72 L32,72 Z M17.033,83.088 C16.3003333,83.088 15.6656667,83.2011667 15.129,83.4275 C14.5923333,83.6538333 14.1781667,83.9875 13.8865,84.4285 C13.5948333,84.8695 13.449,85.4073333 13.449,86.042 C13.449,86.5833333 13.5808333,87.0278333 13.8445,87.3755 C14.1081667,87.7231667 14.4546667,87.9961667 14.884,88.1945 C15.3133333,88.3928333 15.8383333,88.5643333 16.459,88.709 C16.921,88.8116667 17.2791667,88.9143333 17.5335,89.017 C17.7878333,89.1196667 17.9803333,89.2585 18.111,89.4335 C18.2416667,89.6085 18.307,89.8406667 18.307,90.13 C18.307,91.2266667 17.523,91.775 15.955,91.775 C15.367,91.775 14.9061667,91.6886667 14.5725,91.516 C14.2388333,91.3433333 14.065,91.1053333 14.051,90.802 C14.0463333,90.732 14.0265,90.6748333 13.9915,90.6305 C13.9681667,90.6009444 13.9401667,90.5812407 13.9075,90.5713889 L13.855,90.564 L12.812,90.564 C12.7513333,90.564 12.7023333,90.5826667 12.665,90.62 C12.6276667,90.6573333 12.6066667,90.7086667 12.602,90.774 C12.5973333,90.8206667 12.595,90.8883333 12.595,90.977 C12.595,91.7143333 12.8761667,92.2661667 13.4385,92.6325 C14.0008333,92.9988333 14.814,93.182 15.878,93.182 C16.6806667,93.182 17.3795,93.0676667 17.9745,92.839 C18.5695,92.6103333 19.0303333,92.2603333 19.357,91.789 C19.6836667,91.3176667 19.847,90.732 19.847,90.032 C19.847,89.4766667 19.6976667,89.0251667 19.399,88.6775 C19.1003333,88.3298333 18.7188333,88.0615 18.2545,87.8725 C17.7901667,87.6835 17.2103333,87.5096667 16.515,87.351 C16.137,87.2623333 15.8348333,87.1596667 15.6085,87.043 C15.3821667,86.9263333 15.2165,86.7828333 15.1115,86.6125 C15.0065,86.4421667 14.954,86.2333333 14.954,85.986 C14.954,85.4913333 15.1266667,85.118 15.472,84.866 C15.8173333,84.614 16.326,84.488 16.998,84.488 C17.5253333,84.488 17.9465,84.5685 18.2615,84.7295 C18.5765,84.8905 18.7503333,85.118 18.783,85.412 C18.7923333,85.482 18.8215,85.538 18.8705,85.58 C18.9031667,85.608 18.941537,85.6266667 18.9856111,85.636 L19.056,85.643 L19.966,85.643 C20.134,85.643 20.2203333,85.5706667 20.225,85.426 C20.2576667,84.642 19.9975,84.0563333 19.4445,83.669 C18.8915,83.2816667 18.0876667,83.088 17.033,83.088 Z" id="Combined-Shape" fill="#000000" fill-rule="nonzero"></path>
    <path d="M212,36 L212,68 L180,68 L180,36 L212,36 Z M211,37 L181,37 L181,67 L211,67 L211,37 Z M197.033,47.088 C198.087667,47.088 198.8915,47.2816667 199.4445,47.669 C199.9975,48.0563333 200.257667,48.642 200.225,49.426 C200.220333,49.5706667 200.134,49.643 199.966,49.643 L199.966,49.643 L199.056,49.643 L198.985611,49.636 C198.941537,49.6266667 198.903167,49.608 198.8705,49.58 C198.8215,49.538 198.792333,49.482 198.783,49.412 C198.750333,49.118 198.5765,48.8905 198.2615,48.7295 C197.9465,48.5685 197.525333,48.488 196.998,48.488 C196.326,48.488 195.817333,48.614 195.472,48.866 C195.126667,49.118 194.954,49.4913333 194.954,49.986 C194.954,50.2333333 195.0065,50.4421667 195.1115,50.6125 C195.2165,50.7828333 195.382167,50.9263333 195.6085,51.043 C195.834833,51.1596667 196.137,51.2623333 196.515,51.351 C197.210333,51.5096667 197.790167,51.6835 198.2545,51.8725 C198.718833,52.0615 199.100333,52.3298333 199.399,52.6775 C199.697667,53.0251667 199.847,53.4766667 199.847,54.032 C199.847,54.732 199.683667,55.3176667 199.357,55.789 C199.030333,56.2603333 198.5695,56.6103333 197.9745,56.839 C197.3795,57.0676667 196.680667,57.182 195.878,57.182 C194.814,57.182 194.000833,56.9988333 193.4385,56.6325 C192.876167,56.2661667 192.595,55.7143333 192.595,54.977 C192.595,54.8883333 192.597333,54.8206667 192.602,54.774 C192.606667,54.7086667 192.627667,54.6573333 192.665,54.62 C192.702333,54.5826667 192.751333,54.564 192.812,54.564 L192.812,54.564 L193.855,54.564 L193.9075,54.5713889 C193.940167,54.5812407 193.968167,54.6009444 193.9915,54.6305 C194.0265,54.6748333 194.046333,54.732 194.051,54.802 C194.065,55.1053333 194.238833,55.3433333 194.5725,55.516 C194.906167,55.6886667 195.367,55.775 195.955,55.775 C197.523,55.775 198.307,55.2266667 198.307,54.13 C198.307,53.8406667 198.241667,53.6085 198.111,53.4335 C197.980333,53.2585 197.787833,53.1196667 197.5335,53.017 C197.279167,52.9143333 196.921,52.8116667 196.459,52.709 C195.838333,52.5643333 195.313333,52.3928333 194.884,52.1945 C194.454667,51.9961667 194.108167,51.7231667 193.8445,51.3755 C193.580833,51.0278333 193.449,50.5833333 193.449,50.042 C193.449,49.4073333 193.594833,48.8695 193.8865,48.4285 C194.178167,47.9875 194.592333,47.6538333 195.129,47.4275 C195.665667,47.2011667 196.300333,47.088 197.033,47.088 Z" id="Combined-Shape" fill="#000000" fill-rule="nonzero"></path>
    <path d="M176,36 L176,68 L144,68 L144,36 L176,36 Z M175,37 L145,37 L145,67 L175,67 L175,37 Z M159.248,47.2 L159.311778,47.2062222 C159.350148,47.2145185 159.380222,47.2311111 159.402,47.256 C159.434667,47.2933333 159.446333,47.3493333 159.437,47.424 L159.437,47.424 L158.891,51.316 L162.349,51.316 L162.902,47.396 L162.91992,47.32544 C162.952773,47.2418133 163.021467,47.2 163.126,47.2 L163.126,47.2 L164.274,47.2 L164.337778,47.2062222 C164.376148,47.2145185 164.406222,47.2311111 164.428,47.256 C164.460667,47.2933333 164.472333,47.3493333 164.463,47.424 L164.463,47.424 L163.147,56.804 L163.12908,56.87456 C163.096227,56.9581867 163.027533,57 162.923,57 L162.923,57 L161.775,57 L161.711222,56.9937778 C161.672852,56.9854815 161.642778,56.9688889 161.621,56.944 C161.588333,56.9066667 161.576667,56.8506667 161.586,56.776 L161.586,56.776 L162.153,52.723 L158.695,52.723 L158.121,56.804 L158.10308,56.87456 C158.070227,56.9581867 158.001533,57 157.897,57 L157.897,57 L156.749,57 L156.685222,56.9937778 C156.646852,56.9854815 156.616778,56.9688889 156.595,56.944 C156.562333,56.9066667 156.550667,56.8506667 156.56,56.776 L156.56,56.776 L157.876,47.396 L157.89392,47.32544 C157.926773,47.2418133 157.995467,47.2 158.1,47.2 L158.1,47.2 L159.248,47.2 Z" id="Combined-Shape" fill="#000000" fill-rule="nonzero"></path>
    <path d="M140,36 L140,68 L108,68 L108,36 L140,36 Z M139,37 L109,37 L109,67 L139,67 L139,37 Z M125.432,47.2 L125.687938,47.2040469 C126.269813,47.2229323 126.7445,47.3079167 127.112,47.459 C127.532,47.6316667 127.834167,47.8871667 128.0185,48.2255 C128.202833,48.5638333 128.295,48.992 128.295,49.51 C128.295,50.4106667 128.167833,51.1526667 127.9135,51.736 C127.659167,52.3193333 127.2625,52.7556667 126.7235,53.045 C126.1845,53.3343333 125.483333,53.479 124.62,53.479 L124.62,53.479 L122.618,53.479 L122.156,56.804 L122.13808,56.87456 C122.105227,56.9581867 122.036533,57 121.932,57 L121.932,57 L120.784,57 L120.720222,56.9937778 C120.681852,56.9854815 120.651778,56.9688889 120.63,56.944 C120.597333,56.9066667 120.585667,56.8506667 120.595,56.776 L120.595,56.776 L121.911,47.396 L121.92892,47.32544 C121.961773,47.2418133 122.030467,47.2 122.135,47.2 L122.135,47.2 L125.432,47.2 Z M125.306,48.607 L123.304,48.607 L122.821,52.072 L124.753,52.072 C125.271,52.072 125.679333,51.9821667 125.978,51.8025 C126.276667,51.6228333 126.486667,51.3556667 126.608,51.001 C126.729333,50.6463333 126.79,50.1866667 126.79,49.622 C126.79,49.328 126.738667,49.1086667 126.636,48.964 C126.533333,48.8193333 126.3805,48.7236667 126.1775,48.677 C125.9745,48.6303333 125.684,48.607 125.306,48.607 L125.306,48.607 Z" id="Combined-Shape" fill="#000000" fill-rule="nonzero"></path>
    <path d="M104,36 L104,68 L72,68 L72,36 L104,36 Z M103,37 L73,37 L73,67 L103,67 L103,37 Z M90.167,47.2 L90.23868,47.20784 C90.3252933,47.2287467 90.3760667,47.2914667 90.391,47.396 L90.391,47.396 L91.693,56.776 L91.6933889,56.8444444 C91.6830185,56.9481481 91.6175556,57 91.497,57 L91.497,57 L90.335,57 L90.26556,56.99216 C90.1811867,56.9712533 90.1296667,56.9085333 90.111,56.804 L90.111,56.804 L89.894,55.089 L86.324,55.089 L85.61,56.832 L85.5778,56.89248 C85.5292667,56.96416 85.4583333,57 85.365,57 L85.365,57 L84.175,57 L84.1228889,56.9957222 C84.0907407,56.9900185 84.0637778,56.9786111 84.042,56.9615 C84.0093333,56.9358333 83.993,56.902 83.993,56.86 C83.993,56.8226667 84,56.7876667 84.014,56.755 L84.014,56.755 L87.955,47.361 L87.98468,47.30304 C88.0302267,47.2343467 88.0996667,47.2 88.193,47.2 L88.193,47.2 L90.167,47.2 Z M89.096,48.817 L88.879,48.817 L86.87,53.738 L89.719,53.738 L89.096,48.817 Z" id="Combined-Shape" fill="#000000" fill-rule="nonzero"></path>
    <path d="M68,36 L68,68 L36,68 L36,36 L68,36 Z M67,37 L37,37 L37,67 L67,67 L67,37 Z M48.784,57 L48.7202222,56.9937778 C48.6818519,56.9854815 48.6517778,56.9688889 48.63,56.944 C48.5973333,56.9066667 48.5856667,56.8506667 48.595,56.776 L48.595,56.776 L49.911,47.396 L49.92892,47.32544 C49.9617733,47.2418133 50.0304667,47.2 50.135,47.2 L50.135,47.2 L53.432,47.2 L53.6879375,47.2040469 C54.2698125,47.2229323 54.7445,47.3079167 55.112,47.459 C55.532,47.6316667 55.8341667,47.8871667 56.0185,48.2255 C56.2028333,48.5638333 56.295,48.992 56.295,49.51 C56.295,50.602 56.106,51.4618333 55.728,52.0895 C55.35,52.7171667 54.7573333,53.1313333 53.95,53.332 L53.95,53.332 L55.518,56.748 L55.5374444,56.7993333 C55.5478148,56.8304444 55.553,56.8553333 55.553,56.874 C55.553,56.958 55.4946667,57 55.378,57 L55.378,57 L54.258,57 L54.18744,56.9944 C54.10008,56.9794667 54.0396,56.9346667 54.006,56.86 L54.006,56.86 L52.48,53.479 L50.618,53.479 L50.156,56.804 L50.13808,56.87456 C50.1052267,56.9581867 50.0365333,57 49.932,57 L49.932,57 L48.784,57 Z M53.306,48.607 L51.304,48.607 L50.821,52.072 L52.753,52.072 C53.271,52.072 53.6793333,51.9821667 53.978,51.8025 C54.2766667,51.6228333 54.4866667,51.3556667 54.608,51.001 C54.7293333,50.6463333 54.79,50.1866667 54.79,49.622 C54.79,49.328 54.7386667,49.1086667 54.636,48.964 C54.5333333,48.8193333 54.3805,48.7236667 54.1775,48.677 C53.9745,48.6303333 53.684,48.607 53.306,48.607 L53.306,48.607 Z" id="Combined-Shape" fill="#000000" fill-rule="nonzero"></path>
    <path d="M32,36 L32,68 L0,68 L0,36 L32,36 Z M31,37 L1,37 L1,67 L31,67 L31,37 Z M17.208,47.06 C17.922,47.06 18.5053333,47.1463333 18.958,47.319 C19.4106667,47.4916667 19.7478333,47.7681667 19.9695,48.1485 C20.1911667,48.5288333 20.302,49.0316667 20.302,49.657 L20.302,49.657 L20.295,49.895 L20.2891667,49.9548889 C20.2697222,50.0456296 20.2016667,50.091 20.085,50.091 L20.085,50.091 L19.063,50.091 L18.9984444,50.0824444 C18.959037,50.071037 18.9268889,50.0482222 18.902,50.014 C18.8646667,49.9626667 18.8436667,49.8926667 18.839,49.804 C18.825,49.4586667 18.7585,49.1985 18.6395,49.0235 C18.5205,48.8485 18.3478333,48.7295 18.1215,48.6665 C17.8951667,48.6035 17.5813333,48.572 17.18,48.572 C16.6806667,48.572 16.2711667,48.6525 15.9515,48.8135 C15.6318333,48.9745 15.3611667,49.286 15.1395,49.748 C14.9178333,50.21 14.744,50.882 14.618,51.764 L14.618,51.764 L14.499,52.59 L14.45868,52.8952 C14.4108933,53.2909333 14.387,53.6418667 14.387,53.948 C14.387,54.4333333 14.45,54.8031667 14.576,55.0575 C14.702,55.3118333 14.8816667,55.4833333 15.115,55.572 C15.3483333,55.6606667 15.6586667,55.705 16.046,55.705 C16.5546667,55.705 16.9676667,55.6303333 17.285,55.481 C17.6023333,55.3316667 17.852,55.089 18.034,54.753 C18.216,54.417 18.3513333,53.9573333 18.44,53.374 L18.44,53.374 L16.235,53.374 L16.1708333,53.3673889 C16.1319444,53.3585741 16.1008333,53.3409444 16.0775,53.3145 C16.0425,53.2748333 16.0296667,53.22 16.039,53.15 L16.039,53.15 L16.179,52.219 L16.19692,52.14844 C16.2297733,52.0648133 16.2984667,52.023 16.403,52.023 L16.403,52.023 L19.882,52.023 L19.9461667,52.0292222 C19.9850556,52.0375185 20.0161667,52.0541111 20.0395,52.079 C20.0745,52.1163333 20.0873333,52.1723333 20.078,52.247 L20.078,52.247 L19.91,53.381 L19.8631605,53.6807037 C19.7294979,54.4619383 19.5257778,55.0993704 19.252,55.593 C18.944,56.1483333 18.5228333,56.5555 17.9885,56.8145 C17.4541667,57.0735 16.7716667,57.2053333 15.941,57.21 C15.2223333,57.21 14.639,57.1143333 14.191,56.923 C13.743,56.7316667 13.4081667,56.4155 13.1865,55.9745 C12.9648333,55.5335 12.854,54.9373333 12.854,54.186 C12.854,53.6866667 12.8983333,53.129 12.987,52.513 L12.987,52.513 L13.106,51.673 L13.15878,51.321215 C13.32426,50.289905 13.554,49.475 13.848,48.8765 C14.1746667,48.2115 14.6051667,47.7425 15.1395,47.4695 C15.6738333,47.1965 16.3633333,47.06 17.208,47.06 Z" id="Combined-Shape" fill="#000000" fill-rule="nonzero"></path>
    <path d="M212,0 L212,32 L180,32 L180,0 L212,0 Z M211,1 L181,1 L181,31 L211,31 L211,1 Z M200.155,11.2 L200.220722,11.2062222 C200.319241,11.226963 200.362667,11.2995556 200.351,11.424 L200.351,11.424 L200.211,12.411 L200.198944,12.4708889 C200.170426,12.5616296 200.099778,12.607 199.987,12.607 L199.987,12.607 L195.388,12.607 L195.024,15.183 L199.231,15.183 L199.295167,15.1896111 C199.334056,15.1984259 199.365167,15.2160556 199.3885,15.2425 C199.4235,15.2821667 199.436333,15.337 199.427,15.407 L199.427,15.407 L199.28,16.401 L199.267944,16.4608889 C199.239426,16.5516296 199.168778,16.597 199.056,16.597 L199.056,16.597 L194.821,16.597 L194.401,19.593 L198.986,19.593 L199.051722,19.5992222 C199.150241,19.619963 199.193667,19.6925556 199.182,19.817 L199.182,19.817 L199.049,20.804 L199.036944,20.8638889 C199.008426,20.9546296 198.937778,21 198.825,21 L198.825,21 L192.868,21 L192.802278,20.9937778 C192.703759,20.973037 192.660333,20.9004444 192.672,20.776 L192.672,20.776 L193.988,11.396 L194.000056,11.3361111 C194.028574,11.2453704 194.099222,11.2 194.212,11.2 L194.212,11.2 L200.155,11.2 Z" id="Combined-Shape" fill="#000000" fill-rule="nonzero"></path>
    <path d="M176,0 L176,32 L144,32 L144,0 L176,0 Z M175,1 L145,1 L145,31 L175,31 L175,1 Z M159.43,11.2 L159.495722,11.2062222 C159.594241,11.226963 159.637667,11.2995556 159.626,11.424 L159.626,11.424 L158.471,19.593 L163.119,19.593 L163.186667,19.5992222 C163.287778,19.619963 163.330556,19.6925556 163.315,19.817 L163.315,19.817 L163.182,20.804 L163.16408,20.87456 C163.131227,20.9581867 163.062533,21 162.958,21 L162.958,21 L156.938,21 L156.872278,20.9937778 C156.773759,20.973037 156.730333,20.9004444 156.742,20.776 L156.742,20.776 L158.058,11.396 L158.070056,11.3361111 C158.098574,11.2453704 158.169222,11.2 158.282,11.2 L158.282,11.2 L159.43,11.2 Z" id="Combined-Shape" fill="#000000" fill-rule="nonzero"></path>
    <path d="M140,0 L140,32 L108,32 L108,0 L140,0 Z M139,1 L109,1 L109,31 L139,31 L139,1 Z M124.648,11.2 L124.915411,11.2045357 C126.04997,11.2438452 126.869667,11.5386667 127.3745,12.089 C127.918167,12.6816667 128.19,13.5426667 128.19,14.672 C128.19,16.6926667 127.799167,18.2525 127.0175,19.3515 C126.235833,20.4505 125.012,21 123.346,21 L123.346,21 L120.686,21 L120.620278,20.9937778 C120.521759,20.973037 120.478333,20.9004444 120.49,20.776 L120.49,20.776 L121.806,11.396 L121.818056,11.3361111 C121.846574,11.2453704 121.917222,11.2 122.03,11.2 L122.03,11.2 L124.648,11.2 Z M124.529,12.607 L123.213,12.607 L122.226,19.593 L123.472,19.593 C124.601333,19.593 125.408667,19.1531667 125.894,18.2735 C126.379333,17.3938333 126.622,16.1723333 126.622,14.609 C126.622,14.1563333 126.557833,13.7841667 126.4295,13.4925 C126.301167,13.2008333 126.084167,12.9803333 125.7785,12.831 C125.472833,12.6816667 125.056333,12.607 124.529,12.607 L124.529,12.607 Z" id="Combined-Shape" fill="#000000" fill-rule="nonzero"></path>
    <path d="M104,0 L104,32 L72,32 L72,0 L104,0 Z M89.432,11.2 L86.135,11.2 C86.0304667,11.2 85.9617733,11.2418133 85.92892,11.32544 L85.911,11.396 L84.595,20.776 C84.5856667,20.8506667 84.5973333,20.9066667 84.63,20.944 C84.6517778,20.9688889 84.6818519,20.9854815 84.7202222,20.9937778 L84.784,21 L85.932,21 C86.0365333,21 86.1052267,20.9581867 86.13808,20.87456 L86.156,20.804 L86.618,17.479 L88.48,17.479 L90.006,20.86 C90.0396,20.9346667 90.10008,20.9794667 90.18744,20.9944 L90.258,21 L91.378,21 C91.4946667,21 91.553,20.958 91.553,20.874 C91.553,20.8553333 91.5478148,20.8304444 91.5374444,20.7993333 L91.518,20.748 L89.95,17.332 C90.7573333,17.1313333 91.35,16.7171667 91.728,16.0895 C92.106,15.4618333 92.295,14.602 92.295,13.51 C92.295,12.992 92.2028333,12.5638333 92.0185,12.2255 C91.8341667,11.8871667 91.532,11.6316667 91.112,11.459 C90.7445,11.3079167 90.2698125,11.2229323 89.6879375,11.2040469 L89.432,11.2 Z M89.306,12.607 C89.684,12.607 89.9745,12.6303333 90.1775,12.677 C90.3805,12.7236667 90.5333333,12.8193333 90.636,12.964 C90.7386667,13.1086667 90.79,13.328 90.79,13.622 C90.79,14.1866667 90.7293333,14.6463333 90.608,15.001 C90.4866667,15.3556667 90.2766667,15.6228333 89.978,15.8025 C89.6793333,15.9821667 89.271,16.072 88.753,16.072 L86.821,16.072 L87.304,12.607 L89.306,12.607 Z" id="Combined-Shape" fill="#000000" fill-rule="nonzero"></path>
    <path d="M68,0 L68,32 L36,32 L36,0 L68,0 Z M67,1 L37,1 L37,31 L67,31 L67,1 Z M53.152,11.06 C53.866,11.06 54.4435,11.1533333 54.8845,11.34 C55.3255,11.5266667 55.6556667,11.8381667 55.875,12.2745 C56.0943333,12.7108333 56.204,13.3023333 56.204,14.049 C56.204,14.5203333 56.1573333,15.0896667 56.064,15.757 L56.064,15.757 L55.945,16.59 L55.89229,16.943115 C55.72723,17.978205 55.4998,18.795 55.21,19.3935 C54.888,20.0585 54.4621667,20.5275 53.9325,20.8005 C53.4028333,21.0735 52.7133333,21.21 51.864,21.21 C51.15,21.21 50.5725,21.1166667 50.1315,20.93 C49.6905,20.7433333 49.3603333,20.4306667 49.141,19.992 C48.9216667,19.5533333 48.812,18.9606667 48.812,18.214 C48.812,17.7426667 48.8586667,17.1733333 48.952,16.506 L48.952,16.506 L49.064,15.673 L49.116745,15.319885 C49.282015,14.284795 49.5106,13.468 49.8025,12.8695 C50.1268333,12.2045 50.5538333,11.7366667 51.0835,11.466 C51.6131667,11.1953333 52.3026667,11.06 53.152,11.06 Z M53.075,12.565 C52.5663333,12.565 52.1568333,12.6443333 51.8465,12.803 C51.5361667,12.9616667 51.2783333,13.2696667 51.073,13.727 C50.8676667,14.1843333 50.702,14.8633333 50.576,15.764 L50.576,15.764 L50.457,16.59 L50.4185,16.8777778 C50.3601667,17.3431481 50.331,17.7372222 50.331,18.06 C50.331,18.522 50.3893333,18.872 50.506,19.11 C50.6226667,19.348 50.793,19.5066667 51.017,19.586 C51.241,19.6653333 51.5466667,19.705 51.934,19.705 C52.4426667,19.705 52.8521667,19.6256667 53.1625,19.467 C53.4728333,19.3083333 53.7318333,19.0003333 53.9395,18.543 C54.1471667,18.0856667 54.314,17.4066667 54.44,16.506 L54.44,16.506 L54.552,15.68 L54.5854286,15.4305714 C54.6471429,14.9448571 54.678,14.538 54.678,14.21 C54.678,13.748 54.6196667,13.398 54.503,13.16 C54.3863333,12.922 54.216,12.7633333 53.992,12.684 C53.768,12.6046667 53.4623333,12.565 53.075,12.565 Z" id="Combined-Shape" fill="#000000" fill-rule="nonzero"></path>
    <path d="M32,0 L32,32 L0,32 L0,0 L32,0 Z M31,1 L1,1 L1,31 L31,31 L31,1 Z M14.618,11.2 L14.6782778,11.2066111 C14.7150926,11.2154259 14.7451667,11.2330556 14.7685,11.2595 C14.8035,11.2991667 14.821,11.3516667 14.821,11.417 L14.821,11.417 L14.506,18.984 L16.627,11.382 L16.65444,11.31648 C16.6977467,11.2388267 16.7679333,11.2 16.865,11.2 L16.865,11.2 L17.495,11.2 L17.5556667,11.2062222 C17.593,11.2145185 17.6241111,11.2311111 17.649,11.256 C17.6863333,11.2933333 17.705,11.3446667 17.705,11.41 L17.705,11.41 L17.691,18.984 L19.511,11.382 L19.53368,11.31648 C19.57176,11.2388267 19.6412,11.2 19.742,11.2 L19.742,11.2 L20.785,11.2 L20.8413889,11.2050556 C20.8761296,11.2117963 20.9051667,11.2252778 20.9285,11.2455 C20.9635,11.2758333 20.981,11.3143333 20.981,11.361 C20.981,11.3703333 20.9763333,11.3936667 20.967,11.431 L20.967,11.431 L18.503,20.818 L18.48032,20.88352 C18.44224,20.9611733 18.3728,21 18.272,21 L18.272,21 L16.879,21 L16.8183333,20.9937778 C16.781,20.9854815 16.7498889,20.9688889 16.725,20.944 C16.6876667,20.9066667 16.669,20.8553333 16.669,20.79 L16.669,20.79 L16.676,14.98 L15.038,20.818 L15.01056,20.88352 C14.9672533,20.9611733 14.8970667,21 14.8,21 L14.8,21 L13.407,21 L13.3463333,20.9937778 C13.309,20.9854815 13.2778889,20.9688889 13.253,20.944 C13.2156667,20.9066667 13.197,20.8553333 13.197,20.79 L13.197,20.79 L13.372,11.403 L13.3799722,11.3409722 C13.4026574,11.2469907 13.4723333,11.2 13.589,11.2 L13.589,11.2 L14.618,11.2 Z" id="Combined-Shape" fill="#000000" fill-rule="nonzero"></path>
    <g id="Group" transform="translate(36.000000, 36.000000)" fill="#000000">
        <circle id="Oval" transform="translate(0.750000, 0.750000) scale(-1, -1) translate(-0.750000, -0.750000) " cx="0.75" cy="0.75" r="1"></circle>
        <circle id="Oval-Copy-25" transform="translate(0.750000, 8.750000) scale(-1, -1) translate(-0.750000, -8.750000) " cx="0.75" cy="8.75" r="1"></circle>
        <circle id="Oval-Copy-57" transform="translate(0.750000, 16.750000) scale(-1, -1) translate(-0.750000, -16.750000) " cx="0.75" cy="16.75" r="1"></circle>
        <circle id="Oval-Copy-89" transform="translate(0.750000, 24.750000) scale(-1, -1) translate(-0.750000, -24.750000) " cx="0.75" cy="24.75" r="1"></circle>
        <circle id="Oval-Copy" transform="translate(12.750000, 0.750000) scale(-1, -1) translate(-12.750000, -0.750000) " cx="12.75" cy="0.75" r="1"></circle>
        <circle id="Oval-Copy-26" transform="translate(12.750000, 8.750000) scale(-1, -1) translate(-12.750000, -8.750000) " cx="12.75" cy="8.75" r="1"></circle>
        <circle id="Oval-Copy-90" transform="translate(12.750000, 24.750000) scale(-1, -1) translate(-12.750000, -24.750000) " cx="12.75" cy="24.75" r="1"></circle>
        <circle id="Oval-Copy-13" transform="translate(24.750000, 0.750000) scale(-1, -1) translate(-24.750000, -0.750000) " cx="24.75" cy="0.75" r="1"></circle>
        <circle id="Oval-Copy-27" transform="translate(24.750000, 8.750000) scale(-1, -1) translate(-24.750000, -8.750000) " cx="24.75" cy="8.75" r="1"></circle>
        <circle id="Oval-Copy-59" transform="translate(24.750000, 16.750000) scale(-1, -1) translate(-24.750000, -16.750000) " cx="24.75" cy="16.75" r="1"></circle>
        <circle id="Oval-Copy-91" transform="translate(24.750000, 24.750000) scale(-1, -1) translate(-24.750000, -24.750000) " cx="24.75" cy="24.75" r="1"></circle>
        <circle id="Oval" transform="translate(4.750000, 0.750000) scale(-1, -1) translate(-4.750000, -0.750000) " cx="4.75" cy="0.75" r="1"></circle>
        <circle id="Oval-Copy-28" transform="translate(4.750000, 8.750000) scale(-1, -1) translate(-4.750000, -8.750000) " cx="4.75" cy="8.75" r="1"></circle>
        <circle id="Oval-Copy-60" transform="translate(4.750000, 16.750000) scale(-1, -1) translate(-4.750000, -16.750000) " cx="4.75" cy="16.75" r="1"></circle>
        <circle id="Oval-Copy-92" transform="translate(4.750000, 24.750000) scale(-1, -1) translate(-4.750000, -24.750000) " cx="4.75" cy="24.75" r="1"></circle>
        <circle id="Oval-Copy-2" transform="translate(16.750000, 0.750000) scale(-1, -1) translate(-16.750000, -0.750000) " cx="16.75" cy="0.75" r="1"></circle>
        <circle id="Oval-Copy-29" transform="translate(16.750000, 8.750000) scale(-1, -1) translate(-16.750000, -8.750000) " cx="16.75" cy="8.75" r="1"></circle>
        <circle id="Oval-Copy-93" transform="translate(16.750000, 24.750000) scale(-1, -1) translate(-16.750000, -24.750000) " cx="16.75" cy="24.75" r="1"></circle>
        <circle id="Oval-Copy-14" transform="translate(28.750000, 0.750000) scale(-1, -1) translate(-28.750000, -0.750000) " cx="28.75" cy="0.75" r="1"></circle>
        <circle id="Oval-Copy-30" transform="translate(28.750000, 8.750000) scale(-1, -1) translate(-28.750000, -8.750000) " cx="28.75" cy="8.75" r="1"></circle>
        <circle id="Oval-Copy-62" transform="translate(28.750000, 16.750000) scale(-1, -1) translate(-28.750000, -16.750000) " cx="28.75" cy="16.75" r="1"></circle>
        <circle id="Oval-Copy-94" transform="translate(28.750000, 24.750000) scale(-1, -1) translate(-28.750000, -24.750000) " cx="28.75" cy="24.75" r="1"></circle>
        <circle id="Oval" transform="translate(8.750000, 0.750000) scale(-1, -1) translate(-8.750000, -0.750000) " cx="8.75" cy="0.75" r="1"></circle>
        <circle id="Oval-Copy-31" transform="translate(8.750000, 8.750000) scale(-1, -1) translate(-8.750000, -8.750000) " cx="8.75" cy="8.75" r="1"></circle>
        <circle id="Oval-Copy-63" transform="translate(8.750000, 16.750000) scale(-1, -1) translate(-8.750000, -16.750000) " cx="8.75" cy="16.75" r="1"></circle>
        <circle id="Oval-Copy-95" transform="translate(8.750000, 24.750000) scale(-1, -1) translate(-8.750000, -24.750000) " cx="8.75" cy="24.75" r="1"></circle>
        <circle id="Oval-Copy-3" transform="translate(20.750000, 0.750000) scale(-1, -1) translate(-20.750000, -0.750000) " cx="20.75" cy="0.75" r="1"></circle>
        <circle id="Oval-Copy-32" transform="translate(20.750000, 8.750000) scale(-1, -1) translate(-20.750000, -8.750000) " cx="20.75" cy="8.75" r="1"></circle>
        <circle id="Oval-Copy-96" transform="translate(20.750000, 24.750000) scale(-1, -1) translate(-20.750000, -24.750000) " cx="20.75" cy="24.75" r="1"></circle>
        <circle id="Oval" transform="translate(2.750000, 2.750000) scale(-1, -1) translate(-2.750000, -2.750000) " cx="2.75" cy="2.75" r="1"></circle>
        <circle id="Oval-Copy-33" transform="translate(2.750000, 10.750000) scale(-1, -1) translate(-2.750000, -10.750000) " cx="2.75" cy="10.75" r="1"></circle>
        <circle id="Oval-Copy-65" transform="translate(2.750000, 18.750000) scale(-1, -1) translate(-2.750000, -18.750000) " cx="2.75" cy="18.75" r="1"></circle>
        <circle id="Oval-Copy-97" transform="translate(2.750000, 26.750000) scale(-1, -1) translate(-2.750000, -26.750000) " cx="2.75" cy="26.75" r="1"></circle>
        <circle id="Oval-Copy-4" transform="translate(14.750000, 2.750000) scale(-1, -1) translate(-14.750000, -2.750000) " cx="14.75" cy="2.75" r="1"></circle>
        <circle id="Oval-Copy-98" transform="translate(14.750000, 26.750000) scale(-1, -1) translate(-14.750000, -26.750000) " cx="14.75" cy="26.75" r="1"></circle>
        <circle id="Oval-Copy-16" transform="translate(26.750000, 2.750000) scale(-1, -1) translate(-26.750000, -2.750000) " cx="26.75" cy="2.75" r="1"></circle>
        <circle id="Oval-Copy-35" transform="translate(26.750000, 10.750000) scale(-1, -1) translate(-26.750000, -10.750000) " cx="26.75" cy="10.75" r="1"></circle>
        <circle id="Oval-Copy-67" transform="translate(26.750000, 18.750000) scale(-1, -1) translate(-26.750000, -18.750000) " cx="26.75" cy="18.75" r="1"></circle>
        <circle id="Oval-Copy-99" transform="translate(26.750000, 26.750000) scale(-1, -1) translate(-26.750000, -26.750000) " cx="26.75" cy="26.75" r="1"></circle>
        <circle id="Oval" transform="translate(6.750000, 2.750000) scale(-1, -1) translate(-6.750000, -2.750000) " cx="6.75" cy="2.75" r="1"></circle>
        <circle id="Oval-Copy-36" transform="translate(6.750000, 10.750000) scale(-1, -1) translate(-6.750000, -10.750000) " cx="6.75" cy="10.75" r="1"></circle>
        <circle id="Oval-Copy-68" transform="translate(6.750000, 18.750000) scale(-1, -1) translate(-6.750000, -18.750000) " cx="6.75" cy="18.75" r="1"></circle>
        <circle id="Oval-Copy-100" transform="translate(6.750000, 26.750000) scale(-1, -1) translate(-6.750000, -26.750000) " cx="6.75" cy="26.75" r="1"></circle>
        <circle id="Oval-Copy-5" transform="translate(18.750000, 2.750000) scale(-1, -1) translate(-18.750000, -2.750000) " cx="18.75" cy="2.75" r="1"></circle>
        <circle id="Oval-Copy-101" transform="translate(18.750000, 26.750000) scale(-1, -1) translate(-18.750000, -26.750000) " cx="18.75" cy="26.75" r="1"></circle>
        <circle id="Oval-Copy-17" transform="translate(30.750000, 2.750000) scale(-1, -1) translate(-30.750000, -2.750000) " cx="30.75" cy="2.75" r="1"></circle>
        <circle id="Oval-Copy-38" transform="translate(30.750000, 10.750000) scale(-1, -1) translate(-30.750000, -10.750000) " cx="30.75" cy="10.75" r="1"></circle>
        <circle id="Oval-Copy-70" transform="translate(30.750000, 18.750000) scale(-1, -1) translate(-30.750000, -18.750000) " cx="30.75" cy="18.75" r="1"></circle>
        <circle id="Oval-Copy-102" transform="translate(30.750000, 26.750000) scale(-1, -1) translate(-30.750000, -26.750000) " cx="30.75" cy="26.75" r="1"></circle>
        <circle id="Oval" transform="translate(0.750000, 4.750000) scale(-1, -1) translate(-0.750000, -4.750000) " cx="0.75" cy="4.75" r="1"></circle>
        <circle id="Oval-Copy-39" transform="translate(0.750000, 12.750000) scale(-1, -1) translate(-0.750000, -12.750000) " cx="0.75" cy="12.75" r="1"></circle>
        <circle id="Oval-Copy-71" transform="translate(0.750000, 20.750000) scale(-1, -1) translate(-0.750000, -20.750000) " cx="0.75" cy="20.75" r="1"></circle>
        <circle id="Oval-Copy-103" transform="translate(0.750000, 28.750000) scale(-1, -1) translate(-0.750000, -28.750000) " cx="0.75" cy="28.75" r="1"></circle>
        <circle id="Oval-Copy-6" transform="translate(12.750000, 4.750000) scale(-1, -1) translate(-12.750000, -4.750000) " cx="12.75" cy="4.75" r="1"></circle>
        <circle id="Oval-Copy-104" transform="translate(12.750000, 28.750000) scale(-1, -1) translate(-12.750000, -28.750000) " cx="12.75" cy="28.75" r="1"></circle>
        <circle id="Oval-Copy-18" transform="translate(24.750000, 4.750000) scale(-1, -1) translate(-24.750000, -4.750000) " cx="24.75" cy="4.75" r="1"></circle>
        <circle id="Oval-Copy-41" transform="translate(24.750000, 12.750000) scale(-1, -1) translate(-24.750000, -12.750000) " cx="24.75" cy="12.75" r="1"></circle>
        <circle id="Oval-Copy-73" transform="translate(24.750000, 20.750000) scale(-1, -1) translate(-24.750000, -20.750000) " cx="24.75" cy="20.75" r="1"></circle>
        <circle id="Oval-Copy-105" transform="translate(24.750000, 28.750000) scale(-1, -1) translate(-24.750000, -28.750000) " cx="24.75" cy="28.75" r="1"></circle>
        <circle id="Oval" transform="translate(4.750000, 4.750000) scale(-1, -1) translate(-4.750000, -4.750000) " cx="4.75" cy="4.75" r="1"></circle>
        <circle id="Oval-Copy-42" transform="translate(4.750000, 12.750000) scale(-1, -1) translate(-4.750000, -12.750000) " cx="4.75" cy="12.75" r="1"></circle>
        <circle id="Oval-Copy-74" transform="translate(4.750000, 20.750000) scale(-1, -1) translate(-4.750000, -20.750000) " cx="4.75" cy="20.75" r="1"></circle>
        <circle id="Oval-Copy-106" transform="translate(4.750000, 28.750000) scale(-1, -1) translate(-4.750000, -28.750000) " cx="4.75" cy="28.75" r="1"></circle>
        <circle id="Oval-Copy-7" transform="translate(16.750000, 4.750000) scale(-1, -1) translate(-16.750000, -4.750000) " cx="16.75" cy="4.75" r="1"></circle>
        <circle id="Oval-Copy-107" transform="translate(16.750000, 28.750000) scale(-1, -1) translate(-16.750000, -28.750000) " cx="16.75" cy="28.75" r="1"></circle>
        <circle id="Oval-Copy-19" transform="translate(28.750000, 4.750000) scale(-1, -1) translate(-28.750000, -4.750000) " cx="28.75" cy="4.75" r="1"></circle>
        <circle id="Oval-Copy-44" transform="translate(28.750000, 12.750000) scale(-1, -1) translate(-28.750000, -12.750000) " cx="28.75" cy="12.75" r="1"></circle>
        <circle id="Oval-Copy-76" transform="translate(28.750000, 20.750000) scale(-1, -1) translate(-28.750000, -20.750000) " cx="28.75" cy="20.75" r="1"></circle>
        <circle id="Oval-Copy-108" transform="translate(28.750000, 28.750000) scale(-1, -1) translate(-28.750000, -28.750000) " cx="28.75" cy="28.75" r="1"></circle>
        <circle id="Oval" transform="translate(8.750000, 4.750000) scale(-1, -1) translate(-8.750000, -4.750000) " cx="8.75" cy="4.75" r="1"></circle>
        <circle id="Oval-Copy-45" transform="translate(8.750000, 12.750000) scale(-1, -1) translate(-8.750000, -12.750000) " cx="8.75" cy="12.75" r="1"></circle>
        <circle id="Oval-Copy-77" transform="translate(8.750000, 20.750000) scale(-1, -1) translate(-8.750000, -20.750000) " cx="8.75" cy="20.75" r="1"></circle>
        <circle id="Oval-Copy-109" transform="translate(8.750000, 28.750000) scale(-1, -1) translate(-8.750000, -28.750000) " cx="8.75" cy="28.75" r="1"></circle>
        <circle id="Oval-Copy-8" transform="translate(20.750000, 4.750000) scale(-1, -1) translate(-20.750000, -4.750000) " cx="20.75" cy="4.75" r="1"></circle>
        <circle id="Oval-Copy-110" transform="translate(20.750000, 28.750000) scale(-1, -1) translate(-20.750000, -28.750000) " cx="20.75" cy="28.75" r="1"></circle>
        <circle id="Oval" transform="translate(2.750000, 6.750000) scale(-1, -1) translate(-2.750000, -6.750000) " cx="2.75" cy="6.75" r="1"></circle>
        <circle id="Oval-Copy-47" transform="translate(2.750000, 14.750000) scale(-1, -1) translate(-2.750000, -14.750000) " cx="2.75" cy="14.75" r="1"></circle>
        <circle id="Oval-Copy-79" transform="translate(2.750000, 22.750000) scale(-1, -1) translate(-2.750000, -22.750000) " cx="2.75" cy="22.75" r="1"></circle>
        <circle id="Oval-Copy-111" transform="translate(2.750000, 30.750000) scale(-1, -1) translate(-2.750000, -30.750000) " cx="2.75" cy="30.75" r="1"></circle>
        <circle id="Oval-Copy-9" transform="translate(14.750000, 6.750000) scale(-1, -1) translate(-14.750000, -6.750000) " cx="14.75" cy="6.75" r="1"></circle>
        <circle id="Oval-Copy-80" transform="translate(14.750000, 22.750000) scale(-1, -1) translate(-14.750000, -22.750000) " cx="14.75" cy="22.75" r="1"></circle>
        <circle id="Oval-Copy-112" transform="translate(14.750000, 30.750000) scale(-1, -1) translate(-14.750000, -30.750000) " cx="14.75" cy="30.75" r="1"></circle>
        <circle id="Oval-Copy-21" transform="translate(26.750000, 6.750000) scale(-1, -1) translate(-26.750000, -6.750000) " cx="26.75" cy="6.75" r="1"></circle>
        <circle id="Oval-Copy-49" transform="translate(26.750000, 14.750000) scale(-1, -1) translate(-26.750000, -14.750000) " cx="26.75" cy="14.75" r="1"></circle>
        <circle id="Oval-Copy-81" transform="translate(26.750000, 22.750000) scale(-1, -1) translate(-26.750000, -22.750000) " cx="26.75" cy="22.75" r="1"></circle>
        <circle id="Oval-Copy-113" transform="translate(26.750000, 30.750000) scale(-1, -1) translate(-26.750000, -30.750000) " cx="26.75" cy="30.75" r="1"></circle>
        <circle id="Oval" transform="translate(6.750000, 6.750000) scale(-1, -1) translate(-6.750000, -6.750000) " cx="6.75" cy="6.75" r="1"></circle>
        <circle id="Oval-Copy-50" transform="translate(6.750000, 14.750000) scale(-1, -1) translate(-6.750000, -14.750000) " cx="6.75" cy="14.75" r="1"></circle>
        <circle id="Oval-Copy-82" transform="translate(6.750000, 22.750000) scale(-1, -1) translate(-6.750000, -22.750000) " cx="6.75" cy="22.75" r="1"></circle>
        <circle id="Oval-Copy-114" transform="translate(6.750000, 30.750000) scale(-1, -1) translate(-6.750000, -30.750000) " cx="6.75" cy="30.75" r="1"></circle>
        <circle id="Oval-Copy-10" transform="translate(18.750000, 6.750000) scale(-1, -1) translate(-18.750000, -6.750000) " cx="18.75" cy="6.75" r="1"></circle>
        <circle id="Oval-Copy-83" transform="translate(18.750000, 22.750000) scale(-1, -1) translate(-18.750000, -22.750000) " cx="18.75" cy="22.75" r="1"></circle>
        <circle id="Oval-Copy-115" transform="translate(18.750000, 30.750000) scale(-1, -1) translate(-18.750000, -30.750000) " cx="18.75" cy="30.75" r="1"></circle>
        <circle id="Oval-Copy-22" transform="translate(30.750000, 6.750000) scale(-1, -1) translate(-30.750000, -6.750000) " cx="30.75" cy="6.75" r="1"></circle>
        <circle id="Oval-Copy-52" transform="translate(30.750000, 14.750000) scale(-1, -1) translate(-30.750000, -14.750000) " cx="30.75" cy="14.75" r="1"></circle>
        <circle id="Oval-Copy-84" transform="translate(30.750000, 22.750000) scale(-1, -1) translate(-30.750000, -22.750000) " cx="30.75" cy="22.75" r="1"></circle>
        <circle id="Oval-Copy-116" transform="translate(30.750000, 30.750000) scale(-1, -1) translate(-30.750000, -30.750000) " cx="30.75" cy="30.75" r="1"></circle>
        <circle id="Oval" transform="translate(10.750000, 6.750000) scale(-1, -1) translate(-10.750000, -6.750000) " cx="10.75" cy="6.75" r="1"></circle>
        <circle id="Oval-Copy-53" transform="translate(10.750000, 14.750000) scale(-1, -1) translate(-10.750000, -14.750000) " cx="10.75" cy="14.75" r="1"></circle>
        <circle id="Oval-Copy-85" transform="translate(10.750000, 22.750000) scale(-1, -1) translate(-10.750000, -22.750000) " cx="10.75" cy="22.75" r="1"></circle>
        <circle id="Oval-Copy-117" transform="translate(10.750000, 30.750000) scale(-1, -1) translate(-10.750000, -30.750000) " cx="10.75" cy="30.75" r="1"></circle>
        <circle id="Oval-Copy-11" transform="translate(22.750000, 6.750000) scale(-1, -1) translate(-22.750000, -6.750000) " cx="22.75" cy="6.75" r="1"></circle>
        <circle id="Oval-Copy-54" transform="translate(22.750000, 14.750000) scale(-1, -1) translate(-22.750000, -14.750000) " cx="22.75" cy="14.75" r="1"></circle>
        <circle id="Oval-Copy-86" transform="translate(22.750000, 22.750000) scale(-1, -1) translate(-22.750000, -22.750000) " cx="22.75" cy="22.75" r="1"></circle>
        <circle id="Oval-Copy-118" transform="translate(22.750000, 30.750000) scale(-1, -1) translate(-22.750000, -30.750000) " cx="22.75" cy="30.75" r="1"></circle>
        <circle id="Oval" transform="translate(10.750000, 2.750000) scale(-1, -1) translate(-10.750000, -2.750000) " cx="10.75" cy="2.75" r="1"></circle>
        <circle id="Oval-Copy-55" transform="translate(10.750000, 10.750000) scale(-1, -1) translate(-10.750000, -10.750000) " cx="10.75" cy="10.75" r="1"></circle>
        <circle id="Oval-Copy-119" transform="translate(10.750000, 26.750000) scale(-1, -1) translate(-10.750000, -26.750000) " cx="10.75" cy="26.75" r="1"></circle>
        <circle id="Oval-Copy-12" transform="translate(22.750000, 2.750000) scale(-1, -1) translate(-22.750000, -2.750000) " cx="22.75" cy="2.75" r="1"></circle>
        <circle id="Oval-Copy-56" transform="translate(22.750000, 10.750000) scale(-1, -1) translate(-22.750000, -10.750000) " cx="22.75" cy="10.75" r="1"></circle>
        <circle id="Oval-Copy-88" transform="translate(22.750000, 18.750000) scale(-1, -1) translate(-22.750000, -18.750000) " cx="22.75" cy="18.75" r="1"></circle>
        <circle id="Oval-Copy-120" transform="translate(22.750000, 26.750000) scale(-1, -1) translate(-22.750000, -26.750000) " cx="22.75" cy="26.75" r="1"></circle>
        <circle id="Oval" transform="translate(72.750000, 0.750000) scale(-1, -1) translate(-72.750000, -0.750000) " cx="72.75" cy="0.75" r="1"></circle>
        <circle id="Oval-Copy-25" transform="translate(72.750000, 8.750000) scale(-1, -1) translate(-72.750000, -8.750000) " cx="72.75" cy="8.75" r="1"></circle>
        <circle id="Oval-Copy-57" transform="translate(72.750000, 16.750000) scale(-1, -1) translate(-72.750000, -16.750000) " cx="72.75" cy="16.75" r="1"></circle>
        <circle id="Oval-Copy-89" transform="translate(72.750000, 24.750000) scale(-1, -1) translate(-72.750000, -24.750000) " cx="72.75" cy="24.75" r="1"></circle>
        <circle id="Oval-Copy" transform="translate(84.750000, 0.750000) scale(-1, -1) translate(-84.750000, -0.750000) " cx="84.75" cy="0.75" r="1"></circle>
        <circle id="Oval-Copy-26" transform="translate(84.750000, 8.750000) scale(-1, -1) translate(-84.750000, -8.750000) " cx="84.75" cy="8.75" r="1"></circle>
        <circle id="Oval-Copy-90" transform="translate(84.750000, 24.750000) scale(-1, -1) translate(-84.750000, -24.750000) " cx="84.75" cy="24.75" r="1"></circle>
        <circle id="Oval-Copy-13" transform="translate(96.750000, 0.750000) scale(-1, -1) translate(-96.750000, -0.750000) " cx="96.75" cy="0.75" r="1"></circle>
        <circle id="Oval-Copy-27" transform="translate(96.750000, 8.750000) scale(-1, -1) translate(-96.750000, -8.750000) " cx="96.75" cy="8.75" r="1"></circle>
        <circle id="Oval-Copy-59" transform="translate(96.750000, 16.750000) scale(-1, -1) translate(-96.750000, -16.750000) " cx="96.75" cy="16.75" r="1"></circle>
        <circle id="Oval-Copy-91" transform="translate(96.750000, 24.750000) scale(-1, -1) translate(-96.750000, -24.750000) " cx="96.75" cy="24.75" r="1"></circle>
        <circle id="Oval" transform="translate(76.750000, 0.750000) scale(-1, -1) translate(-76.750000, -0.750000) " cx="76.75" cy="0.75" r="1"></circle>
        <circle id="Oval-Copy-28" transform="translate(76.750000, 8.750000) scale(-1, -1) translate(-76.750000, -8.750000) " cx="76.75" cy="8.75" r="1"></circle>
        <circle id="Oval-Copy-60" transform="translate(76.750000, 16.750000) scale(-1, -1) translate(-76.750000, -16.750000) " cx="76.75" cy="16.75" r="1"></circle>
        <circle id="Oval-Copy-92" transform="translate(76.750000, 24.750000) scale(-1, -1) translate(-76.750000, -24.750000) " cx="76.75" cy="24.75" r="1"></circle>
        <circle id="Oval-Copy-2" transform="translate(88.750000, 0.750000) scale(-1, -1) translate(-88.750000, -0.750000) " cx="88.75" cy="0.75" r="1"></circle>
        <circle id="Oval-Copy-29" transform="translate(88.750000, 8.750000) scale(-1, -1) translate(-88.750000, -8.750000) " cx="88.75" cy="8.75" r="1"></circle>
        <circle id="Oval-Copy-93" transform="translate(88.750000, 24.750000) scale(-1, -1) translate(-88.750000, -24.750000) " cx="88.75" cy="24.75" r="1"></circle>
        <circle id="Oval-Copy-14" transform="translate(100.750000, 0.750000) scale(-1, -1) translate(-100.750000, -0.750000) " cx="100.75" cy="0.75" r="1"></circle>
        <circle id="Oval-Copy-30" transform="translate(100.750000, 8.750000) scale(-1, -1) translate(-100.750000, -8.750000) " cx="100.75" cy="8.75" r="1"></circle>
        <circle id="Oval-Copy-62" transform="translate(100.750000, 16.750000) scale(-1, -1) translate(-100.750000, -16.750000) " cx="100.75" cy="16.75" r="1"></circle>
        <circle id="Oval-Copy-94" transform="translate(100.750000, 24.750000) scale(-1, -1) translate(-100.750000, -24.750000) " cx="100.75" cy="24.75" r="1"></circle>
        <circle id="Oval" transform="translate(80.750000, 0.750000) scale(-1, -1) translate(-80.750000, -0.750000) " cx="80.75" cy="0.75" r="1"></circle>
        <circle id="Oval-Copy-31" transform="translate(80.750000, 8.750000) scale(-1, -1) translate(-80.750000, -8.750000) " cx="80.75" cy="8.75" r="1"></circle>
        <circle id="Oval-Copy-63" transform="translate(80.750000, 16.750000) scale(-1, -1) translate(-80.750000, -16.750000) " cx="80.75" cy="16.75" r="1"></circle>
        <circle id="Oval-Copy-95" transform="translate(80.750000, 24.750000) scale(-1, -1) translate(-80.750000, -24.750000) " cx="80.75" cy="24.75" r="1"></circle>
        <circle id="Oval-Copy-3" transform="translate(92.750000, 0.750000) scale(-1, -1) translate(-92.750000, -0.750000) " cx="92.75" cy="0.75" r="1"></circle>
        <circle id="Oval-Copy-32" transform="translate(92.750000, 8.750000) scale(-1, -1) translate(-92.750000, -8.750000) " cx="92.75" cy="8.75" r="1"></circle>
        <circle id="Oval-Copy-96" transform="translate(92.750000, 24.750000) scale(-1, -1) translate(-92.750000, -24.750000) " cx="92.75" cy="24.75" r="1"></circle>
        <circle id="Oval" transform="translate(74.750000, 2.750000) scale(-1, -1) translate(-74.750000, -2.750000) " cx="74.75" cy="2.75" r="1"></circle>
        <circle id="Oval-Copy-33" transform="translate(74.750000, 10.750000) scale(-1, -1) translate(-74.750000, -10.750000) " cx="74.75" cy="10.75" r="1"></circle>
        <circle id="Oval-Copy-65" transform="translate(74.750000, 18.750000) scale(-1, -1) translate(-74.750000, -18.750000) " cx="74.75" cy="18.75" r="1"></circle>
        <circle id="Oval-Copy-97" transform="translate(74.750000, 26.750000) scale(-1, -1) translate(-74.750000, -26.750000) " cx="74.75" cy="26.75" r="1"></circle>
        <circle id="Oval-Copy-4" transform="translate(86.750000, 2.750000) scale(-1, -1) translate(-86.750000, -2.750000) " cx="86.75" cy="2.75" r="1"></circle>
        <circle id="Oval-Copy-98" transform="translate(86.750000, 26.750000) scale(-1, -1) translate(-86.750000, -26.750000) " cx="86.75" cy="26.75" r="1"></circle>
        <circle id="Oval-Copy-16" transform="translate(98.750000, 2.750000) scale(-1, -1) translate(-98.750000, -2.750000) " cx="98.75" cy="2.75" r="1"></circle>
        <circle id="Oval-Copy-35" transform="translate(98.750000, 10.750000) scale(-1, -1) translate(-98.750000, -10.750000) " cx="98.75" cy="10.75" r="1"></circle>
        <circle id="Oval-Copy-67" transform="translate(98.750000, 18.750000) scale(-1, -1) translate(-98.750000, -18.750000) " cx="98.75" cy="18.75" r="1"></circle>
        <circle id="Oval-Copy-99" transform="translate(98.750000, 26.750000) scale(-1, -1) translate(-98.750000, -26.750000) " cx="98.75" cy="26.75" r="1"></circle>
        <circle id="Oval" transform="translate(78.750000, 2.750000) scale(-1, -1) translate(-78.750000, -2.750000) " cx="78.75" cy="2.75" r="1"></circle>
        <circle id="Oval-Copy-36" transform="translate(78.750000, 10.750000) scale(-1, -1) translate(-78.750000, -10.750000) " cx="78.75" cy="10.75" r="1"></circle>
        <circle id="Oval-Copy-68" transform="translate(78.750000, 18.750000) scale(-1, -1) translate(-78.750000, -18.750000) " cx="78.75" cy="18.75" r="1"></circle>
        <circle id="Oval-Copy-100" transform="translate(78.750000, 26.750000) scale(-1, -1) translate(-78.750000, -26.750000) " cx="78.75" cy="26.75" r="1"></circle>
        <circle id="Oval-Copy-5" transform="translate(90.750000, 2.750000) scale(-1, -1) translate(-90.750000, -2.750000) " cx="90.75" cy="2.75" r="1"></circle>
        <circle id="Oval-Copy-69" transform="translate(90.750000, 18.750000) scale(-1, -1) translate(-90.750000, -18.750000) " cx="90.75" cy="18.75" r="1"></circle>
        <circle id="Oval-Copy-101" transform="translate(90.750000, 26.750000) scale(-1, -1) translate(-90.750000, -26.750000) " cx="90.75" cy="26.75" r="1"></circle>
        <circle id="Oval-Copy-17" transform="translate(102.750000, 2.750000) scale(-1, -1) translate(-102.750000, -2.750000) " cx="102.75" cy="2.75" r="1"></circle>
        <circle id="Oval-Copy-38" transform="translate(102.750000, 10.750000) scale(-1, -1) translate(-102.750000, -10.750000) " cx="102.75" cy="10.75" r="1"></circle>
        <circle id="Oval-Copy-70" transform="translate(102.750000, 18.750000) scale(-1, -1) translate(-102.750000, -18.750000) " cx="102.75" cy="18.75" r="1"></circle>
        <circle id="Oval-Copy-102" transform="translate(102.750000, 26.750000) scale(-1, -1) translate(-102.750000, -26.750000) " cx="102.75" cy="26.75" r="1"></circle>
        <circle id="Oval" transform="translate(72.750000, 4.750000) scale(-1, -1) translate(-72.750000, -4.750000) " cx="72.75" cy="4.75" r="1"></circle>
        <circle id="Oval-Copy-39" transform="translate(72.750000, 12.750000) scale(-1, -1) translate(-72.750000, -12.750000) " cx="72.75" cy="12.75" r="1"></circle>
        <circle id="Oval-Copy-71" transform="translate(72.750000, 20.750000) scale(-1, -1) translate(-72.750000, -20.750000) " cx="72.75" cy="20.75" r="1"></circle>
        <circle id="Oval-Copy-103" transform="translate(72.750000, 28.750000) scale(-1, -1) translate(-72.750000, -28.750000) " cx="72.75" cy="28.75" r="1"></circle>
        <circle id="Oval-Copy-6" transform="translate(84.750000, 4.750000) scale(-1, -1) translate(-84.750000, -4.750000) " cx="84.75" cy="4.75" r="1"></circle>
        <circle id="Oval-Copy-104" transform="translate(84.750000, 28.750000) scale(-1, -1) translate(-84.750000, -28.750000) " cx="84.75" cy="28.75" r="1"></circle>
        <circle id="Oval-Copy-18" transform="translate(96.750000, 4.750000) scale(-1, -1) translate(-96.750000, -4.750000) " cx="96.75" cy="4.75" r="1"></circle>
        <circle id="Oval-Copy-41" transform="translate(96.750000, 12.750000) scale(-1, -1) translate(-96.750000, -12.750000) " cx="96.75" cy="12.75" r="1"></circle>
        <circle id="Oval-Copy-73" transform="translate(96.750000, 20.750000) scale(-1, -1) translate(-96.750000, -20.750000) " cx="96.75" cy="20.75" r="1"></circle>
        <circle id="Oval-Copy-105" transform="translate(96.750000, 28.750000) scale(-1, -1) translate(-96.750000, -28.750000) " cx="96.75" cy="28.75" r="1"></circle>
        <circle id="Oval" transform="translate(76.750000, 4.750000) scale(-1, -1) translate(-76.750000, -4.750000) " cx="76.75" cy="4.75" r="1"></circle>
        <circle id="Oval-Copy-42" transform="translate(76.750000, 12.750000) scale(-1, -1) translate(-76.750000, -12.750000) " cx="76.75" cy="12.75" r="1"></circle>
        <circle id="Oval-Copy-74" transform="translate(76.750000, 20.750000) scale(-1, -1) translate(-76.750000, -20.750000) " cx="76.75" cy="20.75" r="1"></circle>
        <circle id="Oval-Copy-106" transform="translate(76.750000, 28.750000) scale(-1, -1) translate(-76.750000, -28.750000) " cx="76.75" cy="28.75" r="1"></circle>
        <circle id="Oval-Copy-7" transform="translate(88.750000, 4.750000) scale(-1, -1) translate(-88.750000, -4.750000) " cx="88.75" cy="4.75" r="1"></circle>
        <circle id="Oval-Copy-75" transform="translate(88.750000, 20.750000) scale(-1, -1) translate(-88.750000, -20.750000) " cx="88.75" cy="20.75" r="1"></circle>
        <circle id="Oval-Copy-107" transform="translate(88.750000, 28.750000) scale(-1, -1) translate(-88.750000, -28.750000) " cx="88.75" cy="28.75" r="1"></circle>
        <circle id="Oval-Copy-19" transform="translate(100.750000, 4.750000) scale(-1, -1) translate(-100.750000, -4.750000) " cx="100.75" cy="4.75" r="1"></circle>
        <circle id="Oval-Copy-44" transform="translate(100.750000, 12.750000) scale(-1, -1) translate(-100.750000, -12.750000) " cx="100.75" cy="12.75" r="1"></circle>
        <circle id="Oval-Copy-76" transform="translate(100.750000, 20.750000) scale(-1, -1) translate(-100.750000, -20.750000) " cx="100.75" cy="20.75" r="1"></circle>
        <circle id="Oval-Copy-108" transform="translate(100.750000, 28.750000) scale(-1, -1) translate(-100.750000, -28.750000) " cx="100.75" cy="28.75" r="1"></circle>
        <circle id="Oval" transform="translate(80.750000, 4.750000) scale(-1, -1) translate(-80.750000, -4.750000) " cx="80.75" cy="4.75" r="1"></circle>
        <circle id="Oval-Copy-45" transform="translate(80.750000, 12.750000) scale(-1, -1) translate(-80.750000, -12.750000) " cx="80.75" cy="12.75" r="1"></circle>
        <circle id="Oval-Copy-77" transform="translate(80.750000, 20.750000) scale(-1, -1) translate(-80.750000, -20.750000) " cx="80.75" cy="20.75" r="1"></circle>
        <circle id="Oval-Copy-109" transform="translate(80.750000, 28.750000) scale(-1, -1) translate(-80.750000, -28.750000) " cx="80.75" cy="28.75" r="1"></circle>
        <circle id="Oval-Copy-8" transform="translate(92.750000, 4.750000) scale(-1, -1) translate(-92.750000, -4.750000) " cx="92.75" cy="4.75" r="1"></circle>
        <circle id="Oval-Copy-78" transform="translate(92.750000, 20.750000) scale(-1, -1) translate(-92.750000, -20.750000) " cx="92.75" cy="20.75" r="1"></circle>
        <circle id="Oval-Copy-110" transform="translate(92.750000, 28.750000) scale(-1, -1) translate(-92.750000, -28.750000) " cx="92.75" cy="28.75" r="1"></circle>
        <circle id="Oval" transform="translate(74.750000, 6.750000) scale(-1, -1) translate(-74.750000, -6.750000) " cx="74.75" cy="6.75" r="1"></circle>
        <circle id="Oval-Copy-47" transform="translate(74.750000, 14.750000) scale(-1, -1) translate(-74.750000, -14.750000) " cx="74.75" cy="14.75" r="1"></circle>
        <circle id="Oval-Copy-79" transform="translate(74.750000, 22.750000) scale(-1, -1) translate(-74.750000, -22.750000) " cx="74.75" cy="22.75" r="1"></circle>
        <circle id="Oval-Copy-111" transform="translate(74.750000, 30.750000) scale(-1, -1) translate(-74.750000, -30.750000) " cx="74.75" cy="30.75" r="1"></circle>
        <circle id="Oval-Copy-9" transform="translate(86.750000, 6.750000) scale(-1, -1) translate(-86.750000, -6.750000) " cx="86.75" cy="6.75" r="1"></circle>
        <circle id="Oval-Copy-80" transform="translate(86.750000, 22.750000) scale(-1, -1) translate(-86.750000, -22.750000) " cx="86.75" cy="22.75" r="1"></circle>
        <circle id="Oval-Copy-112" transform="translate(86.750000, 30.750000) scale(-1, -1) translate(-86.750000, -30.750000) " cx="86.75" cy="30.75" r="1"></circle>
        <circle id="Oval-Copy-21" transform="translate(98.750000, 6.750000) scale(-1, -1) translate(-98.750000, -6.750000) " cx="98.75" cy="6.75" r="1"></circle>
        <circle id="Oval-Copy-49" transform="translate(98.750000, 14.750000) scale(-1, -1) translate(-98.750000, -14.750000) " cx="98.75" cy="14.75" r="1"></circle>
        <circle id="Oval-Copy-81" transform="translate(98.750000, 22.750000) scale(-1, -1) translate(-98.750000, -22.750000) " cx="98.75" cy="22.75" r="1"></circle>
        <circle id="Oval-Copy-113" transform="translate(98.750000, 30.750000) scale(-1, -1) translate(-98.750000, -30.750000) " cx="98.75" cy="30.75" r="1"></circle>
        <circle id="Oval" transform="translate(78.750000, 6.750000) scale(-1, -1) translate(-78.750000, -6.750000) " cx="78.75" cy="6.75" r="1"></circle>
        <circle id="Oval-Copy-50" transform="translate(78.750000, 14.750000) scale(-1, -1) translate(-78.750000, -14.750000) " cx="78.75" cy="14.75" r="1"></circle>
        <circle id="Oval-Copy-82" transform="translate(78.750000, 22.750000) scale(-1, -1) translate(-78.750000, -22.750000) " cx="78.75" cy="22.75" r="1"></circle>
        <circle id="Oval-Copy-114" transform="translate(78.750000, 30.750000) scale(-1, -1) translate(-78.750000, -30.750000) " cx="78.75" cy="30.75" r="1"></circle>
        <circle id="Oval-Copy-10" transform="translate(90.750000, 6.750000) scale(-1, -1) translate(-90.750000, -6.750000) " cx="90.75" cy="6.75" r="1"></circle>
        <circle id="Oval-Copy-83" transform="translate(90.750000, 22.750000) scale(-1, -1) translate(-90.750000, -22.750000) " cx="90.75" cy="22.75" r="1"></circle>
        <circle id="Oval-Copy-115" transform="translate(90.750000, 30.750000) scale(-1, -1) translate(-90.750000, -30.750000) " cx="90.75" cy="30.75" r="1"></circle>
        <circle id="Oval-Copy-22" transform="translate(102.750000, 6.750000) scale(-1, -1) translate(-102.750000, -6.750000) " cx="102.75" cy="6.75" r="1"></circle>
        <circle id="Oval-Copy-52" transform="translate(102.750000, 14.750000) scale(-1, -1) translate(-102.750000, -14.750000) " cx="102.75" cy="14.75" r="1"></circle>
        <circle id="Oval-Copy-84" transform="translate(102.750000, 22.750000) scale(-1, -1) translate(-102.750000, -22.750000) " cx="102.75" cy="22.75" r="1"></circle>
        <circle id="Oval-Copy-116" transform="translate(102.750000, 30.750000) scale(-1, -1) translate(-102.750000, -30.750000) " cx="102.75" cy="30.75" r="1"></circle>
        <circle id="Oval" transform="translate(82.750000, 6.750000) scale(-1, -1) translate(-82.750000, -6.750000) " cx="82.75" cy="6.75" r="1"></circle>
        <circle id="Oval-Copy-53" transform="translate(82.750000, 14.750000) scale(-1, -1) translate(-82.750000, -14.750000) " cx="82.75" cy="14.75" r="1"></circle>
        <circle id="Oval-Copy-85" transform="translate(82.750000, 22.750000) scale(-1, -1) translate(-82.750000, -22.750000) " cx="82.75" cy="22.75" r="1"></circle>
        <circle id="Oval-Copy-117" transform="translate(82.750000, 30.750000) scale(-1, -1) translate(-82.750000, -30.750000) " cx="82.75" cy="30.75" r="1"></circle>
        <circle id="Oval-Copy-11" transform="translate(94.750000, 6.750000) scale(-1, -1) translate(-94.750000, -6.750000) " cx="94.75" cy="6.75" r="1"></circle>
        <circle id="Oval-Copy-54" transform="translate(94.750000, 14.750000) scale(-1, -1) translate(-94.750000, -14.750000) " cx="94.75" cy="14.75" r="1"></circle>
        <circle id="Oval-Copy-86" transform="translate(94.750000, 22.750000) scale(-1, -1) translate(-94.750000, -22.750000) " cx="94.75" cy="22.75" r="1"></circle>
        <circle id="Oval-Copy-118" transform="translate(94.750000, 30.750000) scale(-1, -1) translate(-94.750000, -30.750000) " cx="94.75" cy="30.75" r="1"></circle>
        <circle id="Oval" transform="translate(82.750000, 2.750000) scale(-1, -1) translate(-82.750000, -2.750000) " cx="82.75" cy="2.75" r="1"></circle>
        <circle id="Oval-Copy-55" transform="translate(82.750000, 10.750000) scale(-1, -1) translate(-82.750000, -10.750000) " cx="82.75" cy="10.75" r="1"></circle>
        <circle id="Oval-Copy-87" transform="translate(82.750000, 18.750000) scale(-1, -1) translate(-82.750000, -18.750000) " cx="82.75" cy="18.75" r="1"></circle>
        <circle id="Oval-Copy-119" transform="translate(82.750000, 26.750000) scale(-1, -1) translate(-82.750000, -26.750000) " cx="82.75" cy="26.75" r="1"></circle>
        <circle id="Oval-Copy-12" transform="translate(94.750000, 2.750000) scale(-1, -1) translate(-94.750000, -2.750000) " cx="94.75" cy="2.75" r="1"></circle>
        <circle id="Oval-Copy-56" transform="translate(94.750000, 10.750000) scale(-1, -1) translate(-94.750000, -10.750000) " cx="94.75" cy="10.75" r="1"></circle>
        <circle id="Oval-Copy-88" transform="translate(94.750000, 18.750000) scale(-1, -1) translate(-94.750000, -18.750000) " cx="94.75" cy="18.75" r="1"></circle>
        <circle id="Oval-Copy-120" transform="translate(94.750000, 26.750000) scale(-1, -1) translate(-94.750000, -26.750000) " cx="94.75" cy="26.75" r="1"></circle>
        <circle id="Oval" transform="translate(144.750000, 0.750000) scale(-1, -1) translate(-144.750000, -0.750000) " cx="144.75" cy="0.75" r="1"></circle>
        <circle id="Oval-Copy-25" transform="translate(144.750000, 8.750000) scale(-1, -1) translate(-144.750000, -8.750000) " cx="144.75" cy="8.75" r="1"></circle>
        <circle id="Oval-Copy-57" transform="translate(144.750000, 16.750000) scale(-1, -1) translate(-144.750000, -16.750000) " cx="144.75" cy="16.75" r="1"></circle>
        <circle id="Oval-Copy-89" transform="translate(144.750000, 24.750000) scale(-1, -1) translate(-144.750000, -24.750000) " cx="144.75" cy="24.75" r="1"></circle>
        <circle id="Oval-Copy" transform="translate(156.750000, 0.750000) scale(-1, -1) translate(-156.750000, -0.750000) " cx="156.75" cy="0.75" r="1"></circle>
        <circle id="Oval-Copy-26" transform="translate(156.750000, 8.750000) scale(-1, -1) translate(-156.750000, -8.750000) " cx="156.75" cy="8.75" r="1"></circle>
        <circle id="Oval-Copy-90" transform="translate(156.750000, 24.750000) scale(-1, -1) translate(-156.750000, -24.750000) " cx="156.75" cy="24.75" r="1"></circle>
        <circle id="Oval-Copy-13" transform="translate(168.750000, 0.750000) scale(-1, -1) translate(-168.750000, -0.750000) " cx="168.75" cy="0.75" r="1"></circle>
        <circle id="Oval-Copy-27" transform="translate(168.750000, 8.750000) scale(-1, -1) translate(-168.750000, -8.750000) " cx="168.75" cy="8.75" r="1"></circle>
        <circle id="Oval-Copy-59" transform="translate(168.750000, 16.750000) scale(-1, -1) translate(-168.750000, -16.750000) " cx="168.75" cy="16.75" r="1"></circle>
        <circle id="Oval-Copy-91" transform="translate(168.750000, 24.750000) scale(-1, -1) translate(-168.750000, -24.750000) " cx="168.75" cy="24.75" r="1"></circle>
        <circle id="Oval" transform="translate(148.750000, 0.750000) scale(-1, -1) translate(-148.750000, -0.750000) " cx="148.75" cy="0.75" r="1"></circle>
        <circle id="Oval-Copy-28" transform="translate(148.750000, 8.750000) scale(-1, -1) translate(-148.750000, -8.750000) " cx="148.75" cy="8.75" r="1"></circle>
        <circle id="Oval-Copy-60" transform="translate(148.750000, 16.750000) scale(-1, -1) translate(-148.750000, -16.750000) " cx="148.75" cy="16.75" r="1"></circle>
        <circle id="Oval-Copy-92" transform="translate(148.750000, 24.750000) scale(-1, -1) translate(-148.750000, -24.750000) " cx="148.75" cy="24.75" r="1"></circle>
        <circle id="Oval-Copy-2" transform="translate(160.750000, 0.750000) scale(-1, -1) translate(-160.750000, -0.750000) " cx="160.75" cy="0.75" r="1"></circle>
        <circle id="Oval-Copy-29" transform="translate(160.750000, 8.750000) scale(-1, -1) translate(-160.750000, -8.750000) " cx="160.75" cy="8.75" r="1"></circle>
        <circle id="Oval-Copy-93" transform="translate(160.750000, 24.750000) scale(-1, -1) translate(-160.750000, -24.750000) " cx="160.75" cy="24.75" r="1"></circle>
        <circle id="Oval-Copy-14" transform="translate(172.750000, 0.750000) scale(-1, -1) translate(-172.750000, -0.750000) " cx="172.75" cy="0.75" r="1"></circle>
        <circle id="Oval-Copy-30" transform="translate(172.750000, 8.750000) scale(-1, -1) translate(-172.750000, -8.750000) " cx="172.75" cy="8.75" r="1"></circle>
        <circle id="Oval-Copy-62" transform="translate(172.750000, 16.750000) scale(-1, -1) translate(-172.750000, -16.750000) " cx="172.75" cy="16.75" r="1"></circle>
        <circle id="Oval-Copy-94" transform="translate(172.750000, 24.750000) scale(-1, -1) translate(-172.750000, -24.750000) " cx="172.75" cy="24.75" r="1"></circle>
        <circle id="Oval" transform="translate(152.750000, 0.750000) scale(-1, -1) translate(-152.750000, -0.750000) " cx="152.75" cy="0.75" r="1"></circle>
        <circle id="Oval-Copy-31" transform="translate(152.750000, 8.750000) scale(-1, -1) translate(-152.750000, -8.750000) " cx="152.75" cy="8.75" r="1"></circle>
        <circle id="Oval-Copy-63" transform="translate(152.750000, 16.750000) scale(-1, -1) translate(-152.750000, -16.750000) " cx="152.75" cy="16.75" r="1"></circle>
        <circle id="Oval-Copy-95" transform="translate(152.750000, 24.750000) scale(-1, -1) translate(-152.750000, -24.750000) " cx="152.75" cy="24.75" r="1"></circle>
        <circle id="Oval-Copy-3" transform="translate(164.750000, 0.750000) scale(-1, -1) translate(-164.750000, -0.750000) " cx="164.75" cy="0.75" r="1"></circle>
        <circle id="Oval-Copy-32" transform="translate(164.750000, 8.750000) scale(-1, -1) translate(-164.750000, -8.750000) " cx="164.75" cy="8.75" r="1"></circle>
        <circle id="Oval-Copy-96" transform="translate(164.750000, 24.750000) scale(-1, -1) translate(-164.750000, -24.750000) " cx="164.75" cy="24.75" r="1"></circle>
        <circle id="Oval" transform="translate(146.750000, 2.750000) scale(-1, -1) translate(-146.750000, -2.750000) " cx="146.75" cy="2.75" r="1"></circle>
        <circle id="Oval-Copy-33" transform="translate(146.750000, 10.750000) scale(-1, -1) translate(-146.750000, -10.750000) " cx="146.75" cy="10.75" r="1"></circle>
        <circle id="Oval-Copy-65" transform="translate(146.750000, 18.750000) scale(-1, -1) translate(-146.750000, -18.750000) " cx="146.75" cy="18.75" r="1"></circle>
        <circle id="Oval-Copy-97" transform="translate(146.750000, 26.750000) scale(-1, -1) translate(-146.750000, -26.750000) " cx="146.75" cy="26.75" r="1"></circle>
        <circle id="Oval-Copy-4" transform="translate(158.750000, 2.750000) scale(-1, -1) translate(-158.750000, -2.750000) " cx="158.75" cy="2.75" r="1"></circle>
        <circle id="Oval-Copy-98" transform="translate(158.750000, 26.750000) scale(-1, -1) translate(-158.750000, -26.750000) " cx="158.75" cy="26.75" r="1"></circle>
        <circle id="Oval-Copy-16" transform="translate(170.750000, 2.750000) scale(-1, -1) translate(-170.750000, -2.750000) " cx="170.75" cy="2.75" r="1"></circle>
        <circle id="Oval-Copy-35" transform="translate(170.750000, 10.750000) scale(-1, -1) translate(-170.750000, -10.750000) " cx="170.75" cy="10.75" r="1"></circle>
        <circle id="Oval-Copy-67" transform="translate(170.750000, 18.750000) scale(-1, -1) translate(-170.750000, -18.750000) " cx="170.75" cy="18.75" r="1"></circle>
        <circle id="Oval-Copy-99" transform="translate(170.750000, 26.750000) scale(-1, -1) translate(-170.750000, -26.750000) " cx="170.75" cy="26.75" r="1"></circle>
        <circle id="Oval" transform="translate(150.750000, 2.750000) scale(-1, -1) translate(-150.750000, -2.750000) " cx="150.75" cy="2.75" r="1"></circle>
        <circle id="Oval-Copy-36" transform="translate(150.750000, 10.750000) scale(-1, -1) translate(-150.750000, -10.750000) " cx="150.75" cy="10.75" r="1"></circle>
        <circle id="Oval-Copy-68" transform="translate(150.750000, 18.750000) scale(-1, -1) translate(-150.750000, -18.750000) " cx="150.75" cy="18.75" r="1"></circle>
        <circle id="Oval-Copy-100" transform="translate(150.750000, 26.750000) scale(-1, -1) translate(-150.750000, -26.750000) " cx="150.75" cy="26.75" r="1"></circle>
        <circle id="Oval-Copy-5" transform="translate(162.750000, 2.750000) scale(-1, -1) translate(-162.750000, -2.750000) " cx="162.75" cy="2.75" r="1"></circle>
        <circle id="Oval-Copy-101" transform="translate(162.750000, 26.750000) scale(-1, -1) translate(-162.750000, -26.750000) " cx="162.75" cy="26.75" r="1"></circle>
        <circle id="Oval-Copy-17" transform="translate(174.750000, 2.750000) scale(-1, -1) translate(-174.750000, -2.750000) " cx="174.75" cy="2.75" r="1"></circle>
        <circle id="Oval-Copy-38" transform="translate(174.750000, 10.750000) scale(-1, -1) translate(-174.750000, -10.750000) " cx="174.75" cy="10.75" r="1"></circle>
        <circle id="Oval-Copy-70" transform="translate(174.750000, 18.750000) scale(-1, -1) translate(-174.750000, -18.750000) " cx="174.75" cy="18.75" r="1"></circle>
        <circle id="Oval-Copy-102" transform="translate(174.750000, 26.750000) scale(-1, -1) translate(-174.750000, -26.750000) " cx="174.75" cy="26.75" r="1"></circle>
        <circle id="Oval" transform="translate(144.750000, 4.750000) scale(-1, -1) translate(-144.750000, -4.750000) " cx="144.75" cy="4.75" r="1"></circle>
        <circle id="Oval-Copy-39" transform="translate(144.750000, 12.750000) scale(-1, -1) translate(-144.750000, -12.750000) " cx="144.75" cy="12.75" r="1"></circle>
        <circle id="Oval-Copy-71" transform="translate(144.750000, 20.750000) scale(-1, -1) translate(-144.750000, -20.750000) " cx="144.75" cy="20.75" r="1"></circle>
        <circle id="Oval-Copy-103" transform="translate(144.750000, 28.750000) scale(-1, -1) translate(-144.750000, -28.750000) " cx="144.75" cy="28.75" r="1"></circle>
        <circle id="Oval-Copy-6" transform="translate(156.750000, 4.750000) scale(-1, -1) translate(-156.750000, -4.750000) " cx="156.75" cy="4.75" r="1"></circle>
        <circle id="Oval-Copy-104" transform="translate(156.750000, 28.750000) scale(-1, -1) translate(-156.750000, -28.750000) " cx="156.75" cy="28.75" r="1"></circle>
        <circle id="Oval-Copy-18" transform="translate(168.750000, 4.750000) scale(-1, -1) translate(-168.750000, -4.750000) " cx="168.75" cy="4.75" r="1"></circle>
        <circle id="Oval-Copy-41" transform="translate(168.750000, 12.750000) scale(-1, -1) translate(-168.750000, -12.750000) " cx="168.75" cy="12.75" r="1"></circle>
        <circle id="Oval-Copy-73" transform="translate(168.750000, 20.750000) scale(-1, -1) translate(-168.750000, -20.750000) " cx="168.75" cy="20.75" r="1"></circle>
        <circle id="Oval-Copy-105" transform="translate(168.750000, 28.750000) scale(-1, -1) translate(-168.750000, -28.750000) " cx="168.75" cy="28.75" r="1"></circle>
        <circle id="Oval" transform="translate(148.750000, 4.750000) scale(-1, -1) translate(-148.750000, -4.750000) " cx="148.75" cy="4.75" r="1"></circle>
        <circle id="Oval-Copy-42" transform="translate(148.750000, 12.750000) scale(-1, -1) translate(-148.750000, -12.750000) " cx="148.75" cy="12.75" r="1"></circle>
        <circle id="Oval-Copy-74" transform="translate(148.750000, 20.750000) scale(-1, -1) translate(-148.750000, -20.750000) " cx="148.75" cy="20.75" r="1"></circle>
        <circle id="Oval-Copy-106" transform="translate(148.750000, 28.750000) scale(-1, -1) translate(-148.750000, -28.750000) " cx="148.75" cy="28.75" r="1"></circle>
        <circle id="Oval-Copy-7" transform="translate(160.750000, 4.750000) scale(-1, -1) translate(-160.750000, -4.750000) " cx="160.75" cy="4.75" r="1"></circle>
        <circle id="Oval-Copy-107" transform="translate(160.750000, 28.750000) scale(-1, -1) translate(-160.750000, -28.750000) " cx="160.75" cy="28.75" r="1"></circle>
        <circle id="Oval-Copy-19" transform="translate(172.750000, 4.750000) scale(-1, -1) translate(-172.750000, -4.750000) " cx="172.75" cy="4.75" r="1"></circle>
        <circle id="Oval-Copy-44" transform="translate(172.750000, 12.750000) scale(-1, -1) translate(-172.750000, -12.750000) " cx="172.75" cy="12.75" r="1"></circle>
        <circle id="Oval-Copy-76" transform="translate(172.750000, 20.750000) scale(-1, -1) translate(-172.750000, -20.750000) " cx="172.75" cy="20.75" r="1"></circle>
        <circle id="Oval-Copy-108" transform="translate(172.750000, 28.750000) scale(-1, -1) translate(-172.750000, -28.750000) " cx="172.75" cy="28.75" r="1"></circle>
        <circle id="Oval" transform="translate(152.750000, 4.750000) scale(-1, -1) translate(-152.750000, -4.750000) " cx="152.75" cy="4.75" r="1"></circle>
        <circle id="Oval-Copy-45" transform="translate(152.750000, 12.750000) scale(-1, -1) translate(-152.750000, -12.750000) " cx="152.75" cy="12.75" r="1"></circle>
        <circle id="Oval-Copy-77" transform="translate(152.750000, 20.750000) scale(-1, -1) translate(-152.750000, -20.750000) " cx="152.75" cy="20.75" r="1"></circle>
        <circle id="Oval-Copy-109" transform="translate(152.750000, 28.750000) scale(-1, -1) translate(-152.750000, -28.750000) " cx="152.75" cy="28.75" r="1"></circle>
        <circle id="Oval-Copy-8" transform="translate(164.750000, 4.750000) scale(-1, -1) translate(-164.750000, -4.750000) " cx="164.75" cy="4.75" r="1"></circle>
        <circle id="Oval-Copy-110" transform="translate(164.750000, 28.750000) scale(-1, -1) translate(-164.750000, -28.750000) " cx="164.75" cy="28.75" r="1"></circle>
        <circle id="Oval" transform="translate(146.750000, 6.750000) scale(-1, -1) translate(-146.750000, -6.750000) " cx="146.75" cy="6.75" r="1"></circle>
        <circle id="Oval-Copy-47" transform="translate(146.750000, 14.750000) scale(-1, -1) translate(-146.750000, -14.750000) " cx="146.75" cy="14.75" r="1"></circle>
        <circle id="Oval-Copy-79" transform="translate(146.750000, 22.750000) scale(-1, -1) translate(-146.750000, -22.750000) " cx="146.75" cy="22.75" r="1"></circle>
        <circle id="Oval-Copy-111" transform="translate(146.750000, 30.750000) scale(-1, -1) translate(-146.750000, -30.750000) " cx="146.75" cy="30.75" r="1"></circle>
        <circle id="Oval-Copy-9" transform="translate(158.750000, 6.750000) scale(-1, -1) translate(-158.750000, -6.750000) " cx="158.75" cy="6.75" r="1"></circle>
        <circle id="Oval-Copy-80" transform="translate(158.750000, 22.750000) scale(-1, -1) translate(-158.750000, -22.750000) " cx="158.75" cy="22.75" r="1"></circle>
        <circle id="Oval-Copy-112" transform="translate(158.750000, 30.750000) scale(-1, -1) translate(-158.750000, -30.750000) " cx="158.75" cy="30.75" r="1"></circle>
        <circle id="Oval-Copy-21" transform="translate(170.750000, 6.750000) scale(-1, -1) translate(-170.750000, -6.750000) " cx="170.75" cy="6.75" r="1"></circle>
        <circle id="Oval-Copy-49" transform="translate(170.750000, 14.750000) scale(-1, -1) translate(-170.750000, -14.750000) " cx="170.75" cy="14.75" r="1"></circle>
        <circle id="Oval-Copy-81" transform="translate(170.750000, 22.750000) scale(-1, -1) translate(-170.750000, -22.750000) " cx="170.75" cy="22.75" r="1"></circle>
        <circle id="Oval-Copy-113" transform="translate(170.750000, 30.750000) scale(-1, -1) translate(-170.750000, -30.750000) " cx="170.75" cy="30.75" r="1"></circle>
        <circle id="Oval" transform="translate(150.750000, 6.750000) scale(-1, -1) translate(-150.750000, -6.750000) " cx="150.75" cy="6.75" r="1"></circle>
        <circle id="Oval-Copy-50" transform="translate(150.750000, 14.750000) scale(-1, -1) translate(-150.750000, -14.750000) " cx="150.75" cy="14.75" r="1"></circle>
        <circle id="Oval-Copy-82" transform="translate(150.750000, 22.750000) scale(-1, -1) translate(-150.750000, -22.750000) " cx="150.75" cy="22.75" r="1"></circle>
        <circle id="Oval-Copy-114" transform="translate(150.750000, 30.750000) scale(-1, -1) translate(-150.750000, -30.750000) " cx="150.75" cy="30.75" r="1"></circle>
        <circle id="Oval-Copy-10" transform="translate(162.750000, 6.750000) scale(-1, -1) translate(-162.750000, -6.750000) " cx="162.75" cy="6.75" r="1"></circle>
        <circle id="Oval-Copy-83" transform="translate(162.750000, 22.750000) scale(-1, -1) translate(-162.750000, -22.750000) " cx="162.75" cy="22.75" r="1"></circle>
        <circle id="Oval-Copy-115" transform="translate(162.750000, 30.750000) scale(-1, -1) translate(-162.750000, -30.750000) " cx="162.75" cy="30.75" r="1"></circle>
        <circle id="Oval-Copy-22" transform="translate(174.750000, 6.750000) scale(-1, -1) translate(-174.750000, -6.750000) " cx="174.75" cy="6.75" r="1"></circle>
        <circle id="Oval-Copy-52" transform="translate(174.750000, 14.750000) scale(-1, -1) translate(-174.750000, -14.750000) " cx="174.75" cy="14.75" r="1"></circle>
        <circle id="Oval-Copy-84" transform="translate(174.750000, 22.750000) scale(-1, -1) translate(-174.750000, -22.750000) " cx="174.75" cy="22.75" r="1"></circle>
        <circle id="Oval-Copy-116" transform="translate(174.750000, 30.750000) scale(-1, -1) translate(-174.750000, -30.750000) " cx="174.75" cy="30.75" r="1"></circle>
        <circle id="Oval" transform="translate(154.750000, 6.750000) scale(-1, -1) translate(-154.750000, -6.750000) " cx="154.75" cy="6.75" r="1"></circle>
        <circle id="Oval-Copy-53" transform="translate(154.750000, 14.750000) scale(-1, -1) translate(-154.750000, -14.750000) " cx="154.75" cy="14.75" r="1"></circle>
        <circle id="Oval-Copy-85" transform="translate(154.750000, 22.750000) scale(-1, -1) translate(-154.750000, -22.750000) " cx="154.75" cy="22.75" r="1"></circle>
        <circle id="Oval-Copy-117" transform="translate(154.750000, 30.750000) scale(-1, -1) translate(-154.750000, -30.750000) " cx="154.75" cy="30.75" r="1"></circle>
        <circle id="Oval-Copy-11" transform="translate(166.750000, 6.750000) scale(-1, -1) translate(-166.750000, -6.750000) " cx="166.75" cy="6.75" r="1"></circle>
        <circle id="Oval-Copy-54" transform="translate(166.750000, 14.750000) scale(-1, -1) translate(-166.750000, -14.750000) " cx="166.75" cy="14.75" r="1"></circle>
        <circle id="Oval-Copy-86" transform="translate(166.750000, 22.750000) scale(-1, -1) translate(-166.750000, -22.750000) " cx="166.75" cy="22.75" r="1"></circle>
        <circle id="Oval-Copy-118" transform="translate(166.750000, 30.750000) scale(-1, -1) translate(-166.750000, -30.750000) " cx="166.75" cy="30.75" r="1"></circle>
        <circle id="Oval" transform="translate(154.750000, 2.750000) scale(-1, -1) translate(-154.750000, -2.750000) " cx="154.75" cy="2.75" r="1"></circle>
        <circle id="Oval-Copy-55" transform="translate(154.750000, 10.750000) scale(-1, -1) translate(-154.750000, -10.750000) " cx="154.75" cy="10.75" r="1"></circle>
        <circle id="Oval-Copy-119" transform="translate(154.750000, 26.750000) scale(-1, -1) translate(-154.750000, -26.750000) " cx="154.75" cy="26.75" r="1"></circle>
        <circle id="Oval-Copy-12" transform="translate(166.750000, 2.750000) scale(-1, -1) translate(-166.750000, -2.750000) " cx="166.75" cy="2.75" r="1"></circle>
        <circle id="Oval-Copy-56" transform="translate(166.750000, 10.750000) scale(-1, -1) translate(-166.750000, -10.750000) " cx="166.75" cy="10.75" r="1"></circle>
        <circle id="Oval-Copy-88" transform="translate(166.750000, 18.750000) scale(-1, -1) translate(-166.750000, -18.750000) " cx="166.75" cy="18.75" r="1"></circle>
        <circle id="Oval-Copy-120" transform="translate(166.750000, 26.750000) scale(-1, -1) translate(-166.750000, -26.750000) " cx="166.75" cy="26.75" r="1"></circle>
    </g>
</svg>
