<?xml version="1.0" encoding="UTF-8"?>
<svg width="512px" height="512px" viewBox="0 0 512 512" version="1.1" xmlns="http://www.w3.org/2000/svg" xmlns:xlink="http://www.w3.org/1999/xlink">
    <!-- Generator: Sketch 60 (88103) - https://sketch.com -->
    <title>Artboard</title>
    <desc>Created with Sketch.</desc>
    <defs>
        <linearGradient x1="100%" y1="50%" x2="0%" y2="50%" id="linearGradient-1">
            <stop stop-color="#FF69B4" offset="0%"></stop>
            <stop stop-color="#00B7C6" offset="100%"></stop>
        </linearGradient>
    </defs>
    <g id="Artboard" stroke="none" stroke-width="1" fill="none" fill-rule="evenodd">
        <path d="M423.809409,296 C443.92911,296 461.249549,301.07276 475.770725,311.218281 C490.2919,321.363802 500.701659,335.346976 507,353.167804 L507,353.167804 L468.160229,367.195089 L467.923912,366.539567 C464.413256,356.972216 458.937241,349.471305 451.495868,344.036835 C443.885372,338.478854 434.656553,335.699864 423.809409,335.699864 C414.01199,335.699864 405.482986,337.993633 398.222398,342.581173 C390.96181,347.168713 385.363285,353.697135 381.426821,362.166439 C377.490358,370.635744 375.522126,380.869486 375.522126,392.867667 C375.522126,404.865848 377.490358,415.143702 381.426821,423.701228 C385.363285,432.258754 390.96181,438.831287 398.222398,443.418827 C405.482986,448.006367 414.01199,450.300136 423.809409,450.300136 C429.058027,450.300136 434.394122,449.55025 439.817693,448.050477 C445.241265,446.550705 450.27119,443.992269 454.907469,440.375171 C459.543748,436.758072 463.305258,431.59709 466.191997,424.892224 L466.191997,424.892224 L466.659756,423.758409 C467.11415,422.608256 467.528451,421.409092 467.902658,420.160915 L467.902658,420.160915 L467.988368,419.863574 L426.433718,419.863574 L426.433718,382.810368 L507,382.810368 L507,485.236016 L470.784538,485.236016 L467.621561,471.040308 L467.508708,471.172891 C465.165662,473.83609 462.539834,476.27414 459.631225,478.48704 C454.645038,482.280582 448.959036,485.147794 442.573218,487.088677 C436.187399,489.029559 429.058027,490 421.1851,490 C404.389524,490 389.474702,485.941792 376.440634,477.825375 C363.406567,469.708959 353.128024,458.372442 345.605005,443.815825 C338.081987,429.259209 334.320477,412.276489 334.320477,392.867667 C334.320477,373.458845 338.081987,356.520236 345.605005,342.051842 C353.128024,327.583447 363.625259,316.291041 377.096712,308.174625 C390.568164,300.058208 406.139063,296 423.809409,296 Z M78.9557862,296 C91.7274226,296 103.055689,298.955434 112.940586,304.866303 C122.825483,310.777171 130.742148,319.731696 136.690581,331.729877 L136.690581,331.729877 L103.88672,351.844475 L103.540817,351.210819 C100.293456,345.345163 96.5160322,340.836509 92.2085459,337.684857 C87.7472209,334.420646 82.8922495,332.78854 77.6436318,332.78854 C74.4944612,332.78854 71.6077214,333.406094 68.9834126,334.641201 C66.3591037,335.876307 64.2596566,337.596635 62.6850713,339.802183 C61.110486,342.007731 60.3231933,344.610277 60.3231933,347.609823 C60.3231933,350.609368 61.2417014,353.432469 63.0787176,356.079127 C64.9157338,358.725784 68.2835969,361.416553 73.1823067,364.151432 C78.0810166,366.886312 84.9042196,369.929968 93.6519158,373.282401 C105.373829,377.693497 115.040033,382.545703 122.650529,387.839018 C130.261024,393.132333 135.990765,399.263756 139.839752,406.233288 C143.688738,413.202819 145.613231,421.539791 145.613231,431.244202 C145.613231,442.536608 142.857707,452.549795 137.346658,461.283765 C131.83561,470.017735 124.137637,476.854934 114.25274,481.795362 C104.367844,486.735789 92.7771462,489.206003 79.480648,489.206003 C59.1859928,489.206003 42.5653701,483.912688 29.6187797,473.326057 C16.6721893,462.739427 8.79926278,448.62392 6,430.979536 L6,430.979536 L46.1519255,420.922237 L46.2723202,421.567036 C48.2397321,431.830027 52.1798023,439.510956 58.0925308,444.609823 C64.1284412,449.814916 71.6951984,452.417462 80.7928024,452.417462 C85.3416044,452.417462 89.4092832,451.711687 92.9958386,450.300136 C96.582394,448.888586 99.4253953,446.77126 101.524842,443.948158 C103.624289,441.125057 104.674013,437.772624 104.674013,433.890859 C104.674013,430.361983 103.624289,427.230105 101.524842,424.495225 C99.4253953,421.760346 96.0137938,419.113688 91.2900378,416.555252 C86.5662819,413.996817 80.2679406,411.217826 72.3950141,408.218281 C59.9732855,403.277854 49.8259579,398.028649 41.9530313,392.470668 C34.0801048,386.912688 28.3066253,380.516598 24.6325929,373.282401 C20.9585605,366.048204 19.1215443,357.755343 19.1215443,348.40382 C19.1215443,338.170077 21.6146377,329.127331 26.6008245,321.27558 C31.5870113,313.423829 38.5851683,307.248295 47.5952954,302.748977 C56.6054224,298.249659 67.0589194,296 78.9557862,296 Z M241.672655,296 C254.444291,296 265.772558,298.955434 275.657455,304.866303 C285.542351,310.777171 293.459016,319.731696 299.40745,331.729877 L299.40745,331.729877 L266.603589,351.844475 L266.257686,351.210819 C263.010325,345.345163 259.232901,340.836509 254.925415,337.684857 C250.46409,334.420646 245.609118,332.78854 240.360501,332.78854 C237.21133,332.78854 234.32459,333.406094 231.700281,334.641201 C229.075972,335.876307 226.976525,337.596635 225.40194,339.802183 C223.827355,342.007731 223.040062,344.610277 223.040062,347.609823 C223.040062,350.609368 223.95857,353.432469 225.795586,356.079127 C227.632603,358.725784 231.000466,361.416553 235.899175,364.151432 C240.797885,366.886312 247.621088,369.929968 256.368785,373.282401 C268.090697,377.693497 277.756902,382.545703 285.367397,387.839018 C292.977893,393.132333 298.707634,399.263756 302.55662,406.233288 C306.405607,413.202819 308.3301,421.539791 308.3301,431.244202 C308.3301,442.536608 305.574576,452.549795 300.063527,461.283765 C294.552478,470.017735 286.854506,476.854934 276.969609,481.795362 C267.084712,486.735789 255.494015,489.206003 242.197517,489.206003 C221.902862,489.206003 205.282239,483.912688 192.335648,473.326057 C179.389058,462.739427 171.516132,448.62392 168.716869,430.979536 L168.716869,430.979536 L208.868794,420.922237 L208.989189,421.567036 C210.956601,431.830027 214.896671,439.510956 220.8094,444.609823 C226.84531,449.814916 234.412067,452.417462 243.509671,452.417462 C248.058473,452.417462 252.126152,451.711687 255.712707,450.300136 C259.299263,448.888586 262.142264,446.77126 264.241711,443.948158 C266.341158,441.125057 267.390882,437.772624 267.390882,433.890859 C267.390882,430.361983 266.341158,427.230105 264.241711,424.495225 C262.142264,421.760346 258.730663,419.113688 254.006907,416.555252 C249.283151,413.996817 242.984809,411.217826 235.111883,408.218281 C222.690154,403.277854 212.542827,398.028649 204.6699,392.470668 C196.796974,386.912688 191.023494,380.516598 187.349462,373.282401 C183.675429,366.048204 181.838413,357.755343 181.838413,348.40382 C181.838413,338.170077 184.331506,329.127331 189.317693,321.27558 C194.30388,313.423829 201.302037,307.248295 210.312164,302.748977 C219.322291,298.249659 229.775788,296 241.672655,296 Z M320.447905,22 C337.907268,22 353.393484,26.0077626 366.906552,34.0232877 C380.41962,42.0388128 391.242034,54.1817352 399.373792,70.4520548 L399.373792,70.4520548 L354.529538,97.7287671 L354.13813,97.0157931 C349.680599,88.9902089 344.48955,82.8274103 338.564984,78.5273973 C332.466165,74.1009132 325.829216,71.8876712 318.654135,71.8876712 C314.349087,71.8876712 310.402793,72.7251142 306.815252,74.4 C303.227712,76.0748858 300.35768,78.4077626 298.205156,81.3986301 C296.052632,84.3894977 294.976369,87.9187215 294.976369,91.9863014 C294.976369,96.0538813 296.232009,99.8821918 298.743287,103.471233 C301.254565,107.060274 305.858575,110.709132 312.555317,114.417808 C319.252059,118.126484 328.579663,122.253881 340.538131,126.8 C356.562478,132.781735 369.776584,139.361644 380.180451,146.539726 C390.584318,153.717808 398.417114,162.03242 403.67884,171.483562 C408.940566,180.934703 411.571429,192.240183 411.571429,205.4 C411.571429,220.713242 407.804511,234.291781 400.270677,246.135616 C392.736842,257.979452 382.213391,267.251142 368.700322,273.950685 C355.187254,280.650228 339.342284,284 321.165414,284 C293.421769,284 270.70068,276.821918 253.002148,262.465753 C235.303616,248.109589 224.540995,228.968037 220.714286,205.041096 L220.714286,205.041096 L275.603652,191.40274 L275.739847,192.12957 C278.419766,206.120815 283.815471,216.585845 291.92696,223.524658 C300.178303,230.583105 310.522377,234.112329 322.959184,234.112329 C329.177587,234.112329 334.738274,233.155251 339.641246,231.241096 C344.544218,229.326941 348.43072,226.455708 351.300752,222.627397 C354.170784,218.799087 355.6058,214.252968 355.6058,208.989041 C355.6058,204.203653 354.170784,199.956621 351.300752,196.247945 C348.43072,192.539269 343.766917,188.950228 337.309345,185.480822 C330.851772,182.011416 322.241676,178.242922 311.479055,174.175342 C294.498031,167.475799 280.626208,160.357534 269.863588,152.820548 C259.100967,145.283562 251.208378,136.610046 246.185822,126.8 C241.163265,116.989954 238.651987,105.744292 238.651987,93.0630137 C238.651987,79.1853881 242.06015,66.9228311 248.876477,56.2753425 C255.692803,45.6278539 265.259578,37.2534247 277.576799,31.1520548 C289.894021,25.0506849 304.18439,22 320.447905,22 Z M181.946429,27.9545455 L181.946429,192.324984 L181.943099,193.302803 C181.818812,211.513243 178.214462,227.361736 171.13005,240.848284 C163.919131,254.575662 153.703662,265.19946 140.483643,272.719676 C127.263625,280.239892 111.760148,284 93.9732143,284 C68.7349971,284 48.2439683,276.360415 32.5001281,261.081246 C16.7562878,245.802077 7.92291179,224.435113 6,196.980356 L6,196.980356 L61.8846238,190.892562 L61.9343992,191.640903 C62.9467989,206.285894 65.9347568,216.660244 70.8982728,222.763954 C75.9459163,228.971117 83.6375634,232.074698 93.9732143,232.074698 C106.231777,232.074698 114.464243,228.195221 118.670613,220.436268 C122.876982,212.677315 124.980167,202.23257 124.980167,189.102034 L124.980167,189.102034 L124.980167,78.0893198 L34.4831309,78.0893198 L34.4831309,27.9545455 L181.946429,27.9545455 Z M507,227.431818 L507,278.045455 L450.339286,278.045455 L450.339286,227.431818 L507,227.431818 Z" id="Combined-Shape" fill="url(#linearGradient-1)" fill-rule="nonzero"></path>
    </g>
</svg>